<svg xmlns="http://www.w3.org/2000/svg" viewBox="0 0 114.84 90.95"><defs><style>.cls-1,.cls-2,.cls-6{fill:#fff;}.cls-2{font-size:14px;font-family:Palatino-Bold, Palatino;font-weight:700;}.cls-3{letter-spacing:-0.02em;}.cls-4{letter-spacing:-0.09em;}.cls-5{letter-spacing:-0.02em;}.cls-6{font-size:9px;font-family:OpenSans-Regular, Open Sans;}</style></defs><title>Recurso 2</title><g id="Capa_2" data-name="Capa 2"><g id="Layer_1" data-name="Layer 1"><path class="cls-1" d="M48,15.69a.66.66,0,0,0-.67.64.67.67,0,0,0,1.34,0A.66.66,0,0,0,48,15.69Z"/><path class="cls-1" d="M36.79,12.38a.66.66,0,0,0-.67.64.68.68,0,0,0,1.35,0A.66.66,0,0,0,36.79,12.38Z"/><path class="cls-1" d="M24.27,23.84a.67.67,0,0,0-.68.64.66.66,0,0,0,.68.63.65.65,0,0,0,.67-.63A.66.66,0,0,0,24.27,23.84Z"/><path class="cls-1" d="M13.51,21.36a.63.63,0,0,0-.55.73.68.68,0,0,0,.77.53.65.65,0,0,0,.56-.74A.69.69,0,0,0,13.51,21.36Z"/><path class="cls-1" d="M7,20.68a.25.25,0,0,0-.2.27.25.25,0,0,0,.29.2.25.25,0,0,0,.2-.27A.26.26,0,0,0,7,20.68Z"/><path class="cls-1" d="M52.63,20.43a.32.32,0,0,0-.27.35.33.33,0,0,0,.37.25.3.3,0,0,0,.26-.35A.32.32,0,0,0,52.63,20.43Z"/><path class="cls-1" d="M7.68,22.39a2.59,2.59,0,0,1-.48,0A1.35,1.35,0,0,1,6,21.14a1,1,0,0,1,.74-1,.74.74,0,0,1,.71.19.59.59,0,0,1,.12.6.55.55,0,0,1-.46.32A.32.32,0,0,1,6.71,21a.22.22,0,0,1,0-.18.41.41,0,0,0-.15.33c0,.31.28.54.72.62A2.64,2.64,0,0,0,9.46,21a.35.35,0,0,1,.46,0,.29.29,0,0,1,0,.44A3.45,3.45,0,0,1,7.68,22.39Z"/><path class="cls-1" d="M52.85,21.56a.72.72,0,0,1-.65-.35.59.59,0,0,1,0-.64.55.55,0,0,1,.54-.22.3.3,0,0,1,.28.34.29.29,0,0,1-.2.25h0a.45.45,0,0,0,.39-.39c.07-.35-.17-.67-.65-.86a3.07,3.07,0,0,0-2.53.36.33.33,0,0,1-.45-.07.3.3,0,0,1,.07-.43,3.68,3.68,0,0,1,3.17-.42,1.39,1.39,0,0,1,1,1.54,1.08,1.08,0,0,1-1,.89Z"/><path class="cls-1" d="M47.81,28c-3.74,0-8.25-1.52-12.78-4.38l-1.16-.73c-5-3.18-11.18-7.12-17.58-6.16-4.28.64-5.62,2.64-6,3.77a4,4,0,0,0,.86,4.13,3.37,3.37,0,0,0,3.28.93,2.59,2.59,0,0,0,2.2-2,1.93,1.93,0,0,0-.92-1.95,2,2,0,0,0-2.15.33.33.33,0,0,1-.45-.06.29.29,0,0,1,.06-.43A2.62,2.62,0,0,1,16,21.06a2.54,2.54,0,0,1,1.23,2.57,3.17,3.17,0,0,1-2.67,2.48A4,4,0,0,1,10.63,25a4.56,4.56,0,0,1-1-4.75c.46-1.26,1.93-3.49,6.55-4.18,6.65-1,13,3,18.05,6.26l1.15.73c5.49,3.46,10.91,4.92,14.86,4A8.79,8.79,0,0,0,56,22.79a7.66,7.66,0,0,0-2.74-10.68,6.21,6.21,0,0,0-4.49-.66A5.93,5.93,0,0,0,45.09,14a3.85,3.85,0,0,0-.5,3.06,4.06,4.06,0,0,0,1.93,2.5,3.21,3.21,0,0,0,2.31.34,3,3,0,0,0,1.89-1.31,2,2,0,0,0-.72-2.8,1.56,1.56,0,0,0-2.06.47.33.33,0,0,1-.45.11.31.31,0,0,1-.11-.43,2.24,2.24,0,0,1,3-.68,2.58,2.58,0,0,1,.94,3.65A3.74,3.74,0,0,1,49,20.49a3.88,3.88,0,0,1-2.81-.42A4.62,4.62,0,0,1,44,17.2a4.37,4.37,0,0,1,.58-3.53,6.56,6.56,0,0,1,4.07-2.82,6.89,6.89,0,0,1,5,.74,8.25,8.25,0,0,1,3,11.5,9.42,9.42,0,0,1-6.16,4.6A12,12,0,0,1,47.81,28Z"/><path class="cls-1" d="M23.71,24.84a.32.32,0,0,1-.08-.46.36.36,0,0,1,.49-.08.32.32,0,0,1,.09.46A.37.37,0,0,1,23.71,24.84Z"/><path class="cls-1" d="M23.53,26.41A2.76,2.76,0,0,1,21.2,25,2.58,2.58,0,0,1,21,22.75a4.4,4.4,0,0,1,2.4-2.38c2.45-1.05,6.53-.42,8.9.77a.31.31,0,0,1,.14.42.35.35,0,0,1-.45.12C29.79,20.56,26,20,23.7,20.93a3.76,3.76,0,0,0-2.05,2,2,2,0,0,0,.13,1.74,2,2,0,0,0,2.21,1,1.17,1.17,0,0,0,.65-.62.58.58,0,0,0,0-.5.4.4,0,0,0-.47-.22.09.09,0,0,0,0,.05.06.06,0,0,0,0,.06.31.31,0,0,1-.18.4.33.33,0,0,1-.43-.17.65.65,0,0,1,0-.53.71.71,0,0,1,.4-.38,1.07,1.07,0,0,1,1.29.49,1.19,1.19,0,0,1,.07,1,1.85,1.85,0,0,1-1,1A2.16,2.16,0,0,1,23.53,26.41Z"/><path class="cls-1" d="M38.27,18.13H38a5.62,5.62,0,0,1-3.9-2.07,3.22,3.22,0,0,1,.64-4.67,2.24,2.24,0,0,1,3,.36,1.26,1.26,0,0,1-.25,1.81,1,1,0,0,1-.68.18,1,1,0,0,1-.61-.33.58.58,0,0,1-.13-.47.62.62,0,0,1,.25-.42.35.35,0,0,1,.46.06.3.3,0,0,1-.06.43.2.2,0,0,0,.17.11.29.29,0,0,0,.2,0,.65.65,0,0,0,.13-.94,1.56,1.56,0,0,0-2.1-.26A2.63,2.63,0,0,0,34,13.66a2.59,2.59,0,0,0,.57,2A4.9,4.9,0,0,0,38,17.5a5.83,5.83,0,0,0,4.19-1.77c.64-.58,1.18-1.16,1.7-1.72,1.46-1.55,2.71-2.89,5.07-3.24a.31.31,0,1,1,.1.61c-2.13.32-3.25,1.52-4.68,3-.53.56-1.08,1.15-1.74,1.75A6.58,6.58,0,0,1,38.27,18.13Z"/><path class="cls-1" d="M57.13,16.73a.33.33,0,0,1-.32-.24C56.29,14.42,55,13.36,53.44,12c-.57-.48-1.16-1-1.77-1.56a5.75,5.75,0,0,1-2.1-4.4,5.1,5.1,0,0,1,2.16-3.71,3.65,3.65,0,0,1,2.59-.69A3.55,3.55,0,0,1,56.67,2.9a1.93,1.93,0,0,1,.45,1.5,2,2,0,0,1-.81,1.35,1.42,1.42,0,0,1-1.92-.21.83.83,0,0,1-.19-.64.87.87,0,0,1,.35-.58A.7.7,0,0,1,55,4.19a.65.65,0,0,1,.44.24.3.3,0,0,1,0,.43A.34.34,0,0,1,55,4.8a.25.25,0,0,0-.12.17.23.23,0,0,0,.06.19.74.74,0,0,0,1,.11,1.41,1.41,0,0,0,.56-.94,1.35,1.35,0,0,0-.31-1.05,3,3,0,0,0-4-.45,4.52,4.52,0,0,0-1.91,3.25A5.25,5.25,0,0,0,52.13,10c.6.57,1.18,1.06,1.74,1.53,1.61,1.37,3,2.54,3.58,4.8a.31.31,0,0,1-.25.37Z"/><path class="cls-1" d="M66.81,15.69a.66.66,0,0,1,.68.64.68.68,0,1,1-.68-.64Z"/><path class="cls-1" d="M78,12.38a.66.66,0,0,1,.67.64.67.67,0,0,1-1.34,0A.66.66,0,0,1,78,12.38Z"/><path class="cls-1" d="M90.57,23.84a.66.66,0,0,1,.67.64.67.67,0,0,1-1.34,0A.66.66,0,0,1,90.57,23.84Z"/><path class="cls-1" d="M101.33,21.36a.65.65,0,0,1,.55.73.68.68,0,0,1-.78.53.65.65,0,0,1-.55-.74A.67.67,0,0,1,101.33,21.36Z"/><path class="cls-1" d="M107.84,20.68a.25.25,0,0,1,.21.27.26.26,0,0,1-.29.2.24.24,0,1,1,.08-.47Z"/><path class="cls-1" d="M62.21,20.43a.31.31,0,0,1,.26.35.32.32,0,0,1-.37.25.31.31,0,0,1-.26-.35A.33.33,0,0,1,62.21,20.43Z"/><path class="cls-1" d="M107.16,22.39a2.74,2.74,0,0,0,.48,0,1.34,1.34,0,0,0,1.24-1.21,1,1,0,0,0-.74-1,.73.73,0,0,0-.7.19.57.57,0,0,0-.12.6.53.53,0,0,0,.46.32.34.34,0,0,0,.35-.28.27.27,0,0,0,0-.18.38.38,0,0,1,.14.33c0,.31-.27.54-.71.62a2.63,2.63,0,0,1-2.14-.76.36.36,0,0,0-.47,0,.31.31,0,0,0,0,.44A3.49,3.49,0,0,0,107.16,22.39Z"/><path class="cls-1" d="M62,21.56a.74.74,0,0,0,.65-.35.59.59,0,0,0,0-.64.53.53,0,0,0-.53-.22.31.31,0,0,0-.29.34.32.32,0,0,0,.21.25h0a.45.45,0,0,1-.39-.39c-.07-.35.17-.67.64-.86a3,3,0,0,1,2.53.36.34.34,0,0,0,.46-.07.3.3,0,0,0-.08-.43A3.65,3.65,0,0,0,62,19.13a1.4,1.4,0,0,0-1,1.54,1.08,1.08,0,0,0,1,.89Z"/><path class="cls-1" d="M67,28c3.74,0,8.25-1.52,12.79-4.38L81,22.85c5-3.18,11.19-7.12,17.59-6.16,4.28.64,5.62,2.64,6,3.77a4,4,0,0,1-.85,4.13,3.39,3.39,0,0,1-3.29.93,2.59,2.59,0,0,1-2.19-2,1.92,1.92,0,0,1,.91-1.95,2,2,0,0,1,2.15.33.34.34,0,0,0,.46-.06.3.3,0,0,0-.06-.43,2.64,2.64,0,0,0-2.88-.37,2.55,2.55,0,0,0-1.23,2.57,3.18,3.18,0,0,0,2.68,2.48,4,4,0,0,0,3.93-1.1,4.56,4.56,0,0,0,1-4.75c-.47-1.26-1.93-3.49-6.55-4.18-6.66-1-13,3-18.05,6.26l-1.16.73c-5.48,3.46-10.9,4.92-14.86,4a8.77,8.77,0,0,1-5.74-4.3,7.65,7.65,0,0,1,2.74-10.68,6.21,6.21,0,0,1,4.49-.66A5.91,5.91,0,0,1,69.74,14a3.81,3.81,0,0,1,.51,3.06,4,4,0,0,1-1.94,2.5,3.2,3.2,0,0,1-2.31.34,3.09,3.09,0,0,1-1.89-1.31,2,2,0,0,1,.72-2.8,1.55,1.55,0,0,1,2.06.47.34.34,0,0,0,.45.11.3.3,0,0,0,.11-.43,2.23,2.23,0,0,0-3-.68,2.57,2.57,0,0,0-.94,3.65,3.68,3.68,0,0,0,2.29,1.59,3.85,3.85,0,0,0,2.8-.42,4.6,4.6,0,0,0,2.23-2.87,4.41,4.41,0,0,0-.58-3.53,6.58,6.58,0,0,0-4.08-2.82,6.86,6.86,0,0,0-5,.74,8.24,8.24,0,0,0-3,11.5,9.4,9.4,0,0,0,6.16,4.6A12,12,0,0,0,67,28Z"/><path class="cls-1" d="M91.12,24.84a.32.32,0,0,0,.09-.46.37.37,0,0,0-.5-.08.31.31,0,0,0-.08.46A.36.36,0,0,0,91.12,24.84Z"/><path class="cls-1" d="M91.3,26.41A2.75,2.75,0,0,0,93.63,25a2.62,2.62,0,0,0,.18-2.22,4.47,4.47,0,0,0-2.4-2.38c-2.45-1.05-6.53-.42-8.91.77a.31.31,0,0,0-.13.42.33.33,0,0,0,.44.12c2.24-1.12,6.06-1.73,8.32-.75a3.81,3.81,0,0,1,2.06,2,2,2,0,0,1-.13,1.74,2,2,0,0,1-2.22,1,1.15,1.15,0,0,1-.64-.62.55.55,0,0,1,0-.5.4.4,0,0,1,.47-.22s0,0,0,.05,0,0,0,.06a.3.3,0,0,0,.18.4.32.32,0,0,0,.42-.17.62.62,0,0,0,0-.53.74.74,0,0,0-.4-.38,1.07,1.07,0,0,0-1.29.49,1.15,1.15,0,0,0-.07,1,1.85,1.85,0,0,0,1,1A2.06,2.06,0,0,0,91.3,26.41Z"/><path class="cls-1" d="M76.56,18.13h.29a5.6,5.6,0,0,0,3.89-2.07,3.17,3.17,0,0,0,.71-2.46,3.26,3.26,0,0,0-1.34-2.21A2.2,2.2,0,0,0,78.52,11a2.17,2.17,0,0,0-1.43.77,1.24,1.24,0,0,0,.25,1.81,1,1,0,0,0,.68.18,1,1,0,0,0,.61-.33.62.62,0,0,0-.12-.89.35.35,0,0,0-.46.06.29.29,0,0,0,.06.43.21.21,0,0,1-.18.11.25.25,0,0,1-.19,0,.65.65,0,0,1-.13-.94,1.51,1.51,0,0,1,1-.54,1.56,1.56,0,0,1,1.11.28,2.71,2.71,0,0,1,1.09,1.8,2.59,2.59,0,0,1-.57,2,4.92,4.92,0,0,1-3.42,1.83,5.81,5.81,0,0,1-4.19-1.77c-.64-.58-1.18-1.16-1.71-1.72-1.45-1.55-2.7-2.89-5.06-3.24a.32.32,0,0,0-.38.25.33.33,0,0,0,.27.36c2.13.32,3.26,1.52,4.68,3,.54.56,1.09,1.15,1.75,1.75A6.56,6.56,0,0,0,76.56,18.13Z"/><path class="cls-1" d="M57.71,16.73a.32.32,0,0,0,.31-.24c.53-2.07,1.79-3.13,3.38-4.48.57-.48,1.15-1,1.77-1.56a5.79,5.79,0,0,0,2.1-4.4,5.13,5.13,0,0,0-2.16-3.71,3.68,3.68,0,0,0-2.6-.69A3.57,3.57,0,0,0,58.16,2.9a2,2,0,0,0,.36,2.85,1.42,1.42,0,0,0,1.92-.21.83.83,0,0,0,.19-.64.86.86,0,0,0-.34-.58.72.72,0,0,0-.49-.13.65.65,0,0,0-.45.24.3.3,0,0,0,.06.43.34.34,0,0,0,.46-.06A.23.23,0,0,1,60,5a.26.26,0,0,1,0,.19.74.74,0,0,1-1,.11,1.37,1.37,0,0,1-.25-2,2.88,2.88,0,0,1,1.91-1,3,3,0,0,1,2.12.56,4.52,4.52,0,0,1,1.91,3.25A5.23,5.23,0,0,1,62.7,10c-.6.57-1.18,1.06-1.74,1.53-1.61,1.37-3,2.54-3.57,4.8a.31.31,0,0,0,.24.37Z"/><path class="cls-1" d="M1.6,26.18a1.52,1.52,0,0,1,.69.16,1.38,1.38,0,0,1,.69.81,1.11,1.11,0,0,1-.09.89,1.22,1.22,0,0,1-.74.57,1.11,1.11,0,0,1-.82-.08,1,1,0,0,1-.53-.6.89.89,0,0,1,.63-1.11.23.23,0,0,1,.29.14.22.22,0,0,1-.15.28.44.44,0,0,0-.32.56.59.59,0,0,0,.29.35.64.64,0,0,0,.47,0,.76.76,0,0,0,.47-.35.71.71,0,0,0,.06-.57.93.93,0,0,0-.47-.54,1,1,0,0,0-.75-.07,1.13,1.13,0,0,0-.81,1.42c.23.74,1,1.1,2.27,1.1H112.06c1.3,0,2-.36,2.26-1.1a1.12,1.12,0,0,0-.81-1.42,1,1,0,0,0-.74.07.89.89,0,0,0-.47.54.71.71,0,0,0,.06.57.74.74,0,0,0,.46.35.63.63,0,0,0,.47,0,.61.61,0,0,0,.3-.35.44.44,0,0,0-.32-.56.22.22,0,1,1,.13-.42.88.88,0,0,1,.63,1.11,1,1,0,0,1-.52.6,1.11,1.11,0,0,1-.82.08A1.22,1.22,0,0,1,112,28a1.11,1.11,0,0,1-.1-.89,1.36,1.36,0,0,1,.7-.81,1.5,1.5,0,0,1,1.1-.1,1.57,1.57,0,0,1,1.12,2c-.28.94-1.2,1.42-2.71,1.42H2.78c-1.52,0-2.43-.48-2.71-1.42a1.55,1.55,0,0,1,1.12-2A1.51,1.51,0,0,1,1.6,26.18Z"/><path class="cls-1" d="M48,15.41a.65.65,0,1,0,.67.65A.66.66,0,0,0,48,15.41Z"/><path class="cls-1" d="M36.79,12a.65.65,0,1,0,.68.65A.66.66,0,0,0,36.79,12Z"/><path class="cls-1" d="M24.27,23.72a.65.65,0,1,0,0,1.3.65.65,0,1,0,0-1.3Z"/><path class="cls-1" d="M13.51,21.2a.64.64,0,0,0-.55.74.67.67,0,0,0,.77.54.66.66,0,0,0,.56-.75A.68.68,0,0,0,13.51,21.2Z"/><path class="cls-1" d="M7,20.5a.24.24,0,1,0,.29.2A.26.26,0,0,0,7,20.5Z"/><path class="cls-1" d="M52.63,20.25a.32.32,0,0,0-.27.35.33.33,0,0,0,.37.26.31.31,0,1,0-.1-.61Z"/><path class="cls-1" d="M7.68,22.24a2.59,2.59,0,0,1-.48,0A1.36,1.36,0,0,1,6,21a1,1,0,0,1,.74-1,.7.7,0,0,1,.71.2.6.6,0,0,1,.12.61.55.55,0,0,1-.46.32.32.32,0,0,1-.35-.29.23.23,0,0,1,0-.18A.44.44,0,0,0,6.6,21c0,.31.28.55.72.63a2.64,2.64,0,0,0,2.14-.77.33.33,0,0,1,.46,0,.29.29,0,0,1,0,.44A3.38,3.38,0,0,1,7.68,22.24Z"/><path class="cls-1" d="M52.85,21.4A.71.71,0,0,1,52.2,21a.61.61,0,0,1,0-.65.56.56,0,0,1,.54-.23.31.31,0,0,1,.28.35.29.29,0,0,1-.2.25h0a.47.47,0,0,0,.39-.4c.07-.36-.17-.68-.65-.88a3,3,0,0,0-2.53.37.33.33,0,0,1-.45-.07.31.31,0,0,1,.07-.44,3.62,3.62,0,0,1,3.17-.44,1.43,1.43,0,0,1,1,1.57,1.09,1.09,0,0,1-1,.92Z"/><path class="cls-1" d="M47.81,27.93c-3.74,0-8.25-1.56-12.78-4.47l-1.16-.75c-5-3.23-11.18-7.26-17.58-6.28-4.28.65-5.62,2.69-6,3.85a4.12,4.12,0,0,0,.86,4.21,3.31,3.31,0,0,0,3.28.94,2.6,2.6,0,0,0,2.2-2,2,2,0,0,0-.92-2,1.94,1.94,0,0,0-2.15.34.33.33,0,0,1-.45-.06.3.3,0,0,1,.06-.44A2.59,2.59,0,0,1,16,20.89a2.6,2.6,0,0,1,1.23,2.62A3.19,3.19,0,0,1,14.56,26a4,4,0,0,1-3.93-1.12,4.73,4.73,0,0,1-1-4.85c.46-1.29,1.93-3.56,6.55-4.27,6.65-1,13,3.09,18.05,6.39l1.15.75c5.49,3.52,10.91,5,14.86,4.1A8.83,8.83,0,0,0,56,22.65a7.89,7.89,0,0,0-2.74-10.89,6.12,6.12,0,0,0-4.49-.67,5.89,5.89,0,0,0-3.68,2.59,4,4,0,0,0-.5,3.12,4.11,4.11,0,0,0,1.93,2.54,3.11,3.11,0,0,0,2.31.35,3,3,0,0,0,1.89-1.33A2,2,0,0,0,50,15.5a1.54,1.54,0,0,0-2.06.49.34.34,0,0,1-.45.1.31.31,0,0,1-.11-.43,2.21,2.21,0,0,1,3-.7,2.66,2.66,0,0,1,.94,3.73A3.69,3.69,0,0,1,49,20.3a3.78,3.78,0,0,1-2.81-.42A4.74,4.74,0,0,1,44,17a4.53,4.53,0,0,1,.58-3.6,6.51,6.51,0,0,1,4.07-2.87,6.79,6.79,0,0,1,5,.74,8.52,8.52,0,0,1,3,11.74,9.46,9.46,0,0,1-6.16,4.69A11.39,11.39,0,0,1,47.81,27.93Z"/><path class="cls-1" d="M23.71,24.75a.35.35,0,0,1-.08-.48.36.36,0,0,1,.49-.08.34.34,0,0,1,.09.48A.37.37,0,0,1,23.71,24.75Z"/><path class="cls-1" d="M23.53,26.35a2.78,2.78,0,0,1-2.33-1.47A2.69,2.69,0,0,1,21,22.61a4.41,4.41,0,0,1,2.4-2.42c2.45-1.08,6.53-.44,8.9.78a.31.31,0,0,1,.14.42.33.33,0,0,1-.45.13c-2.23-1.14-6.05-1.76-8.32-.76a3.79,3.79,0,0,0-2.05,2.06,2.07,2.07,0,0,0,.13,1.77A2,2,0,0,0,24,25.64a1.23,1.23,0,0,0,.65-.64.6.6,0,0,0,0-.51.39.39,0,0,0-.47-.22l0,0a.08.08,0,0,0,0,.07.33.33,0,0,1-.18.41.34.34,0,0,1-.43-.17.7.7,0,0,1,0-.55.68.68,0,0,1,.4-.38,1,1,0,0,1,1.29.5,1.21,1.21,0,0,1,.07,1,1.82,1.82,0,0,1-1,1A1.94,1.94,0,0,1,23.53,26.35Z"/><path class="cls-1" d="M38.27,17.9H38a5.57,5.57,0,0,1-3.9-2.12A3.32,3.32,0,0,1,34.73,11a2.2,2.2,0,0,1,3,.37,1.3,1.3,0,0,1-.25,1.85,1,1,0,0,1-.68.18.92.92,0,0,1-.61-.34.58.58,0,0,1-.13-.47.64.64,0,0,1,.25-.43.34.34,0,0,1,.46.06.31.31,0,0,1-.06.44.22.22,0,0,0,.17.11.29.29,0,0,0,.2,0,.67.67,0,0,0,.13-1,1.53,1.53,0,0,0-2.1-.26,2.71,2.71,0,0,0-.52,3.88A4.92,4.92,0,0,0,38,17.26a5.76,5.76,0,0,0,4.19-1.81c.64-.6,1.18-1.19,1.7-1.76,1.46-1.57,2.71-2.94,5.07-3.3a.32.32,0,0,1,.37.26.32.32,0,0,1-.27.36c-2.13.33-3.25,1.55-4.68,3.1-.53.58-1.08,1.18-1.74,1.79A6.55,6.55,0,0,1,38.27,17.9Z"/><path class="cls-1" d="M57.13,16.47a.33.33,0,0,1-.32-.24c-.52-2.11-1.78-3.2-3.37-4.57-.57-.49-1.16-1-1.77-1.59a5.93,5.93,0,0,1-2.1-4.5,5.23,5.23,0,0,1,2.16-3.78,3.56,3.56,0,0,1,2.59-.7,3.5,3.5,0,0,1,2.35,1.28,2,2,0,0,1,.45,1.52,2,2,0,0,1-.81,1.38,1.4,1.4,0,0,1-1.92-.22.84.84,0,0,1-.19-.65.91.91,0,0,1,.35-.59.68.68,0,0,1,.93.11.31.31,0,0,1,0,.44A.34.34,0,0,1,55,4.31a.23.23,0,0,0-.12.17.24.24,0,0,0,.06.19.74.74,0,0,0,1,.11,1.45,1.45,0,0,0,.56-1,1.4,1.4,0,0,0-.31-1.07,2.85,2.85,0,0,0-1.92-1,2.89,2.89,0,0,0-2.11.57,4.63,4.63,0,0,0-1.91,3.32,5.37,5.37,0,0,0,1.91,4c.6.59,1.18,1.09,1.74,1.57,1.61,1.39,3,2.59,3.58,4.89a.32.32,0,0,1-.25.38Z"/><path class="cls-1" d="M66.81,15.41a.65.65,0,1,1-.67.65A.66.66,0,0,1,66.81,15.41Z"/><path class="cls-1" d="M78,12a.65.65,0,1,1-.67.65A.66.66,0,0,1,78,12Z"/><path class="cls-1" d="M90.57,23.72a.65.65,0,1,1-.67.65A.67.67,0,0,1,90.57,23.72Z"/><path class="cls-1" d="M101.33,21.2a.65.65,0,0,1,.55.74.67.67,0,0,1-.78.54.65.65,0,1,1,.23-1.28Z"/><path class="cls-1" d="M107.84,20.5a.25.25,0,0,1,.21.28.26.26,0,0,1-.29.2.25.25,0,0,1-.2-.28A.25.25,0,0,1,107.84,20.5Z"/><path class="cls-1" d="M62.21,20.25a.31.31,0,0,1,.26.35.33.33,0,0,1-.37.26.31.31,0,1,1,.11-.61Z"/><path class="cls-1" d="M107.16,22.24a2.74,2.74,0,0,0,.48,0A1.35,1.35,0,0,0,108.88,21a1,1,0,0,0-.74-1,.69.69,0,0,0-.7.2.58.58,0,0,0-.12.61.53.53,0,0,0,.46.32.34.34,0,0,0,.35-.29.28.28,0,0,0,0-.18.4.4,0,0,1,.14.34c0,.31-.27.55-.71.63a2.62,2.62,0,0,1-2.14-.77.34.34,0,0,0-.47,0,.31.31,0,0,0,0,.44A3.42,3.42,0,0,0,107.16,22.24Z"/><path class="cls-1" d="M62,21.4a.72.72,0,0,0,.65-.36.61.61,0,0,0,0-.65.54.54,0,0,0-.53-.23.32.32,0,0,0-.29.35.32.32,0,0,0,.21.25h0a.46.46,0,0,1-.39-.4c-.07-.36.17-.68.64-.88a3,3,0,0,1,2.53.37.34.34,0,0,0,.46-.07.31.31,0,0,0-.08-.44A3.59,3.59,0,0,0,62,18.91a1.44,1.44,0,0,0-1,1.57,1.09,1.09,0,0,0,1,.92Z"/><path class="cls-1" d="M67,27.93c3.74,0,8.25-1.56,12.79-4.47L81,22.71c5-3.23,11.19-7.26,17.59-6.28,4.28.65,5.62,2.69,6,3.85a4.12,4.12,0,0,1-.85,4.21,3.33,3.33,0,0,1-3.29.94,2.6,2.6,0,0,1-2.19-2,2,2,0,0,1,.91-2,1.93,1.93,0,0,1,2.15.34.34.34,0,0,0,.46-.06.31.31,0,0,0-.06-.44,2.46,2.46,0,0,0-4.11,2.24A3.2,3.2,0,0,0,100.28,26a4,4,0,0,0,3.93-1.12,4.73,4.73,0,0,0,1-4.85c-.47-1.29-1.93-3.56-6.55-4.27-6.66-1-13,3.09-18.05,6.39l-1.16.75C74,26.46,68.54,28,64.58,27a8.81,8.81,0,0,1-5.74-4.39,7.88,7.88,0,0,1,2.74-10.89,6.11,6.11,0,0,1,4.49-.67,5.87,5.87,0,0,1,3.67,2.59,4,4,0,0,1,.51,3.12,4.09,4.09,0,0,1-1.94,2.54,3.12,3.12,0,0,1-4.2-1,2.05,2.05,0,0,1,.72-2.86,1.54,1.54,0,0,1,2.06.49.35.35,0,0,0,.45.1.3.3,0,0,0,.11-.43,2.2,2.2,0,0,0-3-.7,2.66,2.66,0,0,0-.94,3.73,3.64,3.64,0,0,0,2.29,1.61,3.75,3.75,0,0,0,2.8-.42A4.72,4.72,0,0,0,70.88,17a4.57,4.57,0,0,0-.58-3.6,6.54,6.54,0,0,0-4.08-2.87,6.76,6.76,0,0,0-5,.74,8.51,8.51,0,0,0-3,11.74,9.43,9.43,0,0,0,6.16,4.69A11.36,11.36,0,0,0,67,27.93Z"/><path class="cls-1" d="M91.12,24.75a.34.34,0,0,0,.09-.48.37.37,0,0,0-.5-.08.33.33,0,0,0-.08.48A.36.36,0,0,0,91.12,24.75Z"/><path class="cls-1" d="M91.3,26.35a2.76,2.76,0,0,0,2.33-1.47,2.73,2.73,0,0,0,.18-2.27,4.47,4.47,0,0,0-2.4-2.42c-2.45-1.08-6.53-.44-8.91.78a.31.31,0,0,0-.13.42.32.32,0,0,0,.44.13c2.24-1.14,6.06-1.76,8.32-.76a3.84,3.84,0,0,1,2.06,2.06,2.11,2.11,0,0,1-.13,1.77,2,2,0,0,1-2.22,1.05A1.21,1.21,0,0,1,90.2,25a.57.57,0,0,1,0-.51.39.39,0,0,1,.47-.22.11.11,0,0,1,0,0,.16.16,0,0,1,0,.07.31.31,0,0,0,.18.41.32.32,0,0,0,.42-.17.66.66,0,0,0,0-.55.71.71,0,0,0-.4-.38,1,1,0,0,0-1.29.5,1.18,1.18,0,0,0-.07,1,1.82,1.82,0,0,0,1,1A1.85,1.85,0,0,0,91.3,26.35Z"/><path class="cls-1" d="M76.56,17.9h.29a5.55,5.55,0,0,0,3.89-2.12,3.27,3.27,0,0,0,.71-2.51A3.35,3.35,0,0,0,80.11,11a2.2,2.2,0,0,0-1.59-.42,2.15,2.15,0,0,0-1.43.79,1.29,1.29,0,0,0,.25,1.85,1,1,0,0,0,.68.18.92.92,0,0,0,.61-.34.62.62,0,0,0,.13-.47.64.64,0,0,0-.25-.43.34.34,0,0,0-.46.06.3.3,0,0,0,.06.44.23.23,0,0,1-.18.11.25.25,0,0,1-.19,0,.67.67,0,0,1-.13-1,1.48,1.48,0,0,1,1-.55,1.51,1.51,0,0,1,1.11.29,2.75,2.75,0,0,1,1.09,1.83,2.67,2.67,0,0,1-.57,2.05,4.94,4.94,0,0,1-3.42,1.87,5.75,5.75,0,0,1-4.19-1.81c-.64-.6-1.18-1.19-1.71-1.76-1.45-1.57-2.7-2.94-5.06-3.3a.32.32,0,1,0-.11.62c2.13.33,3.26,1.55,4.68,3.1.54.58,1.09,1.18,1.75,1.79A6.53,6.53,0,0,0,76.56,17.9Z"/><path class="cls-1" d="M57.71,16.47a.32.32,0,0,0,.31-.24c.53-2.11,1.79-3.2,3.38-4.57.57-.49,1.15-1,1.77-1.59a6,6,0,0,0,2.1-4.5,5.26,5.26,0,0,0-2.16-3.78,3.59,3.59,0,0,0-2.6-.7,3.53,3.53,0,0,0-2.35,1.28,2,2,0,0,0-.44,1.52,2,2,0,0,0,.8,1.38,1.4,1.4,0,0,0,1.92-.22.84.84,0,0,0,.19-.65.9.9,0,0,0-.34-.59.67.67,0,0,0-.49-.13.65.65,0,0,0-.45.24.31.31,0,0,0,.06.44.34.34,0,0,0,.46-.05.22.22,0,0,1,.11.17.27.27,0,0,1,0,.19.74.74,0,0,1-1,.11,1.38,1.38,0,0,1-.56-1,1.4,1.4,0,0,1,.31-1.07,2.83,2.83,0,0,1,1.91-1,2.92,2.92,0,0,1,2.12.57,4.63,4.63,0,0,1,1.91,3.32,5.34,5.34,0,0,1-1.92,4c-.6.59-1.18,1.09-1.74,1.57-1.61,1.39-3,2.59-3.57,4.89a.32.32,0,0,0,.24.38Z"/><path class="cls-1" d="M1.6,26.11a1.53,1.53,0,0,1,.69.17A1.37,1.37,0,0,1,3,27.1a1.15,1.15,0,0,1-.09.91,1.23,1.23,0,0,1-.74.58,1.06,1.06,0,0,1-.82-.08,1,1,0,0,1-.53-.62.91.91,0,0,1,.63-1.13.23.23,0,0,1,.29.15.22.22,0,0,1-.15.28.45.45,0,0,0-.32.58.59.59,0,0,0,.29.35.7.7,0,0,0,.47.05.79.79,0,0,0,.47-.37.71.71,0,0,0,.06-.57,1,1,0,0,0-.47-.56,1,1,0,0,0-.75-.07,1.16,1.16,0,0,0-.81,1.45c.23.75,1,1.12,2.27,1.12H112.06c1.3,0,2-.37,2.26-1.12a1.15,1.15,0,0,0-.81-1.45,1,1,0,0,0-.74.07.93.93,0,0,0-.47.56.71.71,0,0,0,.06.57.77.77,0,0,0,.46.37.69.69,0,0,0,.47-.05.61.61,0,0,0,.3-.35.46.46,0,0,0-.32-.58.24.24,0,0,1-.16-.28.24.24,0,0,1,.29-.15.9.9,0,0,1,.63,1.13,1,1,0,0,1-.52.62,1.07,1.07,0,0,1-.82.08A1.23,1.23,0,0,1,112,28a1.16,1.16,0,0,1-.1-.91,1.35,1.35,0,0,1,.7-.82,1.45,1.45,0,0,1,1.1-.11,1.6,1.6,0,0,1,1.12,2c-.28,1-1.2,1.45-2.71,1.45H2.78c-1.52,0-2.43-.49-2.71-1.45a1.59,1.59,0,0,1,1.12-2A1.51,1.51,0,0,1,1.6,26.11Z"/><path class="cls-1" d="M48,15.12a.66.66,0,1,0,.67.66A.67.67,0,0,0,48,15.12Z"/><path class="cls-1" d="M36.79,11.67a.67.67,0,1,0,.68.67A.67.67,0,0,0,36.79,11.67Z"/><path class="cls-1" d="M24.27,23.6a.67.67,0,1,0,0,1.33.67.67,0,1,0,0-1.33Z"/><path class="cls-1" d="M13.51,21a.66.66,0,0,0-.55.77.67.67,0,0,0,1.33-.22A.69.69,0,0,0,13.51,21Z"/><path class="cls-1" d="M7,20.32a.25.25,0,0,0-.2.28.25.25,0,0,0,.29.2.25.25,0,0,0,.2-.28A.24.24,0,0,0,7,20.32Z"/><path class="cls-1" d="M52.63,20.06a.32.32,0,0,0-.27.36.33.33,0,0,0,.37.26.32.32,0,0,0,.26-.37A.31.31,0,0,0,52.63,20.06Z"/><path class="cls-1" d="M7.68,22.09a2.59,2.59,0,0,1-.48,0A1.37,1.37,0,0,1,6,20.79a1,1,0,0,1,.74-1,.72.72,0,0,1,.71.2.64.64,0,0,1,.12.63.53.53,0,0,1-.46.32.31.31,0,0,1-.35-.29.23.23,0,0,1,0-.18.44.44,0,0,0-.15.34c0,.32.28.56.72.65a2.62,2.62,0,0,0,2.14-.79.33.33,0,0,1,.46,0,.3.3,0,0,1,0,.45A3.36,3.36,0,0,1,7.68,22.09Z"/><path class="cls-1" d="M52.85,21.23a.73.73,0,0,1-.65-.36.64.64,0,0,1,0-.67.56.56,0,0,1,.54-.23.31.31,0,0,1,.28.35.29.29,0,0,1-.2.26h0a.45.45,0,0,0,.39-.4c.07-.36-.17-.7-.65-.89a2.94,2.94,0,0,0-2.53.37.33.33,0,0,1-.45-.07.32.32,0,0,1,.07-.45,3.56,3.56,0,0,1,3.17-.44,1.46,1.46,0,0,1,1,1.6,1.1,1.1,0,0,1-1,.93Z"/><path class="cls-1" d="M47.81,27.9c-3.74,0-8.25-1.59-12.78-4.56l-1.16-.77c-5-3.3-11.18-7.41-17.58-6.41-4.28.67-5.62,2.75-6,3.93a4.28,4.28,0,0,0,.86,4.3,3.28,3.28,0,0,0,3.28,1,2.63,2.63,0,0,0,2.2-2.06,2,2,0,0,0-.92-2,1.92,1.92,0,0,0-2.15.35.33.33,0,0,1-.45-.06.31.31,0,0,1,.06-.45A2.54,2.54,0,0,1,16,20.71a2.67,2.67,0,0,1,1.23,2.67A3.23,3.23,0,0,1,14.56,26a3.93,3.93,0,0,1-3.93-1.15,4.88,4.88,0,0,1-1-4.94c.46-1.32,1.93-3.64,6.55-4.36,6.65-1,13,3.15,18.05,6.52l1.15.76C40.88,26.4,46.3,27.92,50.25,27A8.82,8.82,0,0,0,56,22.51,8.14,8.14,0,0,0,53.26,11.4a6,6,0,0,0-4.49-.69,5.92,5.92,0,0,0-3.68,2.64,4.17,4.17,0,0,0,1.43,5.78,3.07,3.07,0,0,0,2.31.36,3,3,0,0,0,1.89-1.36A2.1,2.1,0,0,0,50,15.21a1.52,1.52,0,0,0-2.06.5.33.33,0,0,1-.56-.34,2.18,2.18,0,0,1,3-.7,2.73,2.73,0,0,1,.94,3.79A3.67,3.67,0,0,1,49,20.11a3.74,3.74,0,0,1-2.81-.43,4.8,4.8,0,0,1-2.22-3A4.69,4.69,0,0,1,44.54,13a6.53,6.53,0,0,1,4.07-2.93,6.66,6.66,0,0,1,5,.76,8.78,8.78,0,0,1,3,12,9.45,9.45,0,0,1-6.16,4.79A11.38,11.38,0,0,1,47.81,27.9Z"/><path class="cls-1" d="M23.71,24.65a.35.35,0,1,1,.41-.57.34.34,0,0,1,.09.48A.36.36,0,0,1,23.71,24.65Z"/><path class="cls-1" d="M23.53,26.28a2.75,2.75,0,0,1-2.33-1.5A2.78,2.78,0,0,1,21,22.47,4.5,4.5,0,0,1,23.43,20c2.45-1.1,6.53-.44,8.9.8a.33.33,0,0,1,.14.44.35.35,0,0,1-.45.13c-2.23-1.17-6.05-1.8-8.32-.78a3.79,3.79,0,0,0-2.05,2.1,2.16,2.16,0,0,0,.13,1.81A1.92,1.92,0,0,0,24,25.55a1.18,1.18,0,0,0,.65-.65.63.63,0,0,0,0-.52.39.39,0,0,0-.47-.22.07.07,0,0,0,0,.05s0,0,0,.06a.33.33,0,0,1-.18.42.33.33,0,0,1-.43-.18.73.73,0,0,1,.41-.94,1,1,0,0,1,1.29.5,1.28,1.28,0,0,1,.07,1.05,1.86,1.86,0,0,1-1,1A1.94,1.94,0,0,1,23.53,26.28Z"/><path class="cls-1" d="M38.27,17.66H38a5.55,5.55,0,0,1-3.9-2.16,3.44,3.44,0,0,1,.64-4.86,2.15,2.15,0,0,1,1.59-.43,2.2,2.2,0,0,1,1.43.81,1.34,1.34,0,0,1-.25,1.88.93.93,0,0,1-.68.18.92.92,0,0,1-.61-.34.6.6,0,0,1-.13-.48.64.64,0,0,1,.25-.44.34.34,0,0,1,.46.06.32.32,0,0,1-.06.45.23.23,0,0,0,.17.12.29.29,0,0,0,.2,0,.7.7,0,0,0,.13-1,1.51,1.51,0,0,0-2.1-.26A2.73,2.73,0,0,0,34,13a2.76,2.76,0,0,0,.57,2.09A4.86,4.86,0,0,0,38,17a5.74,5.74,0,0,0,4.19-1.85c.64-.61,1.18-1.21,1.7-1.79,1.46-1.61,2.71-3,5.07-3.38a.32.32,0,0,1,.1.64c-2.13.33-3.25,1.58-4.68,3.16-.53.6-1.08,1.21-1.74,1.83A6.48,6.48,0,0,1,38.27,17.66Z"/><path class="cls-1" d="M57.13,16.2a.33.33,0,0,1-.32-.24c-.52-2.16-1.78-3.27-3.37-4.67-.57-.5-1.16-1-1.77-1.62a6.1,6.1,0,0,1-2.1-4.59,5.33,5.33,0,0,1,2.16-3.85,3.55,3.55,0,0,1,4.94.58,2.05,2.05,0,0,1,.45,1.56,2.11,2.11,0,0,1-.81,1.41,1.4,1.4,0,0,1-1.92-.23.88.88,0,0,1-.19-.66.93.93,0,0,1,.35-.61A.66.66,0,0,1,55,3.15a.69.69,0,0,1,.44.24.32.32,0,0,1,0,.45.33.33,0,0,1-.46,0,.23.23,0,0,0-.12.17.25.25,0,0,0,.06.2.72.72,0,0,0,1,.11,1.47,1.47,0,0,0,.56-1,1.4,1.4,0,0,0-.31-1.08,2.84,2.84,0,0,0-1.92-1.06,2.89,2.89,0,0,0-2.11.58,4.75,4.75,0,0,0-1.91,3.38,5.57,5.57,0,0,0,1.91,4.11c.6.59,1.18,1.1,1.74,1.59,1.61,1.42,3,2.65,3.58,5a.32.32,0,0,1-.25.38Z"/><path class="cls-1" d="M66.81,15.12a.66.66,0,1,1,0,1.32.66.66,0,1,1,0-1.32Z"/><path class="cls-1" d="M78,11.67a.67.67,0,1,1-.67.67A.67.67,0,0,1,78,11.67Z"/><path class="cls-1" d="M90.57,23.6a.67.67,0,1,1-.67.67A.67.67,0,0,1,90.57,23.6Z"/><path class="cls-1" d="M101.33,21a.67.67,0,1,1-.23,1.31.67.67,0,0,1-.55-.76A.68.68,0,0,1,101.33,21Z"/><path class="cls-1" d="M107.84,20.32a.25.25,0,0,1,.21.28.26.26,0,0,1-.29.2.25.25,0,0,1-.2-.28A.23.23,0,0,1,107.84,20.32Z"/><path class="cls-1" d="M62.21,20.06a.32.32,0,0,1,.26.36.32.32,0,0,1-.63-.11A.32.32,0,0,1,62.21,20.06Z"/><path class="cls-1" d="M107.16,22.09a2.74,2.74,0,0,0,.48,0,1.36,1.36,0,0,0,1.24-1.26,1,1,0,0,0-.74-1,.71.71,0,0,0-.7.2.62.62,0,0,0-.12.63.52.52,0,0,0,.46.32.32.32,0,0,0,.35-.29.28.28,0,0,0,0-.18.4.4,0,0,1,.14.34c0,.32-.27.56-.71.65a2.61,2.61,0,0,1-2.14-.79.34.34,0,0,0-.47,0,.32.32,0,0,0,0,.45A3.4,3.4,0,0,0,107.16,22.09Z"/><path class="cls-1" d="M62,21.23a.74.74,0,0,0,.65-.36.64.64,0,0,0,0-.67.54.54,0,0,0-.53-.23.32.32,0,0,0-.29.35.32.32,0,0,0,.21.26h0a.44.44,0,0,1-.39-.4c-.07-.36.17-.7.64-.89a2.92,2.92,0,0,1,2.53.37.34.34,0,0,0,.46-.07.32.32,0,0,0-.08-.45A3.52,3.52,0,0,0,62,18.7a1.47,1.47,0,0,0-1,1.6,1.1,1.1,0,0,0,1,.93Z"/><path class="cls-1" d="M67,27.9c3.74,0,8.25-1.59,12.79-4.56L81,22.57c5-3.3,11.19-7.41,17.59-6.41,4.28.67,5.62,2.75,6,3.93a4.27,4.27,0,0,1-.85,4.3,3.3,3.3,0,0,1-3.29,1,2.63,2.63,0,0,1-2.19-2.06,2,2,0,0,1,.91-2,1.92,1.92,0,0,1,2.15.35.34.34,0,0,0,.46-.06.32.32,0,0,0-.06-.45,2.56,2.56,0,0,0-2.88-.39,2.69,2.69,0,0,0-1.23,2.67A3.24,3.24,0,0,0,100.28,26a3.94,3.94,0,0,0,3.93-1.15,4.88,4.88,0,0,0,1-4.94c-.47-1.32-1.93-3.64-6.55-4.36-6.66-1-13,3.15-18.05,6.52l-1.16.76C74,26.4,68.54,27.92,64.58,27a8.81,8.81,0,0,1-5.74-4.47A8.13,8.13,0,0,1,61.58,11.4a6,6,0,0,1,4.49-.69,5.9,5.9,0,0,1,3.67,2.64,4.1,4.1,0,0,1,.51,3.18,4.15,4.15,0,0,1-1.94,2.6,3.07,3.07,0,0,1-4.2-1,2.12,2.12,0,0,1,.72-2.92,1.51,1.51,0,0,1,2.06.5.33.33,0,0,0,.45.1.31.31,0,0,0,.11-.44,2.17,2.17,0,0,0-3-.7,2.72,2.72,0,0,0-.94,3.79,3.62,3.62,0,0,0,2.29,1.65,3.71,3.71,0,0,0,2.8-.43A4.79,4.79,0,0,0,70.3,13a6.55,6.55,0,0,0-4.08-2.93,6.63,6.63,0,0,0-5,.76,8.77,8.77,0,0,0-3,12,9.43,9.43,0,0,0,6.16,4.79A11.36,11.36,0,0,0,67,27.9Z"/><path class="cls-1" d="M91.12,24.65a.35.35,0,0,0,.09-.49.37.37,0,0,0-.5-.08.33.33,0,0,0-.08.48A.35.35,0,0,0,91.12,24.65Z"/><path class="cls-1" d="M91.3,26.28a2.73,2.73,0,0,0,2.33-1.5,2.82,2.82,0,0,0,.18-2.31A4.57,4.57,0,0,0,91.41,20c-2.45-1.1-6.53-.44-8.91.8a.32.32,0,1,0,.31.57c2.24-1.17,6.06-1.8,8.32-.78a3.84,3.84,0,0,1,2.06,2.1,2.2,2.2,0,0,1-.13,1.81,1.93,1.93,0,0,1-2.22,1.06,1.17,1.17,0,0,1-.64-.65.59.59,0,0,1,0-.52.39.39,0,0,1,.47-.22.08.08,0,0,1,0,.05.11.11,0,0,1,0,.06.32.32,0,0,0,.18.42.31.31,0,0,0,.42-.18.66.66,0,0,0,0-.55.73.73,0,0,0-.4-.39,1,1,0,0,0-1.29.5,1.24,1.24,0,0,0-.07,1.05,1.8,1.8,0,0,0,1.71,1.16Z"/><path class="cls-1" d="M76.56,17.66h.29a5.53,5.53,0,0,0,3.89-2.16,3.38,3.38,0,0,0,.71-2.56,3.43,3.43,0,0,0-1.34-2.3,2.17,2.17,0,0,0-3,.38,1.32,1.32,0,0,0,.25,1.88.91.91,0,0,0,.68.18.92.92,0,0,0,.61-.34.66.66,0,0,0-.12-.92.34.34,0,0,0-.46.06.31.31,0,0,0,.06.45.25.25,0,0,1-.18.12.25.25,0,0,1-.19,0,.7.7,0,0,1-.13-1,1.49,1.49,0,0,1,1-.56,1.52,1.52,0,0,1,1.11.3A2.81,2.81,0,0,1,80.8,13a2.76,2.76,0,0,1-.57,2.09A4.88,4.88,0,0,1,76.81,17a5.73,5.73,0,0,1-4.19-1.85c-.64-.61-1.18-1.21-1.71-1.79-1.45-1.61-2.7-3-5.06-3.38a.33.33,0,0,0-.38.27.33.33,0,0,0,.27.37c2.13.33,3.26,1.58,4.68,3.16.54.6,1.09,1.21,1.75,1.83A6.45,6.45,0,0,0,76.56,17.66Z"/><path class="cls-1" d="M57.71,16.2A.32.32,0,0,0,58,16c.53-2.16,1.79-3.27,3.38-4.67.57-.5,1.15-1,1.77-1.62a6.14,6.14,0,0,0,2.1-4.59,5.36,5.36,0,0,0-2.16-3.85,3.56,3.56,0,0,0-5,.58,2.1,2.1,0,0,0,.36,3,1.39,1.39,0,0,0,1.92-.23.88.88,0,0,0,.19-.66.92.92,0,0,0-.34-.61.67.67,0,0,0-.49-.13.69.69,0,0,0-.45.24.32.32,0,0,0,.06.45.33.33,0,0,0,.46,0A.22.22,0,0,1,60,4a.29.29,0,0,1,0,.2.72.72,0,0,1-1,.11,1.4,1.4,0,0,1-.56-1,1.4,1.4,0,0,1,.31-1.08,2.82,2.82,0,0,1,1.91-1.06,2.93,2.93,0,0,1,2.12.58,4.75,4.75,0,0,1,1.91,3.38A5.55,5.55,0,0,1,62.7,9.22c-.6.59-1.18,1.1-1.74,1.59-1.61,1.42-3,2.65-3.57,5a.32.32,0,0,0,.24.38Z"/><path class="cls-1" d="M1.6,26a1.41,1.41,0,0,1,.69.17,1.44,1.44,0,0,1,.69.84,1.21,1.21,0,0,1-.83,1.52,1.06,1.06,0,0,1-.82-.08,1.06,1.06,0,0,1-.53-.63.94.94,0,0,1,.63-1.16.23.23,0,0,1,.29.16.22.22,0,0,1-.15.28.46.46,0,0,0-.32.59.61.61,0,0,0,.29.36.65.65,0,0,0,.47.05.81.81,0,0,0,.47-.38.73.73,0,0,0,.06-.58,1,1,0,0,0-.47-.57,1,1,0,0,0-.75-.07A1.19,1.19,0,0,0,.51,28c.23.77,1,1.14,2.27,1.14h7c25.16,0,101.72,0,102.33,0,1.3,0,2-.37,2.26-1.14a1.18,1.18,0,0,0-.81-1.48,1,1,0,0,0-.74.07.92.92,0,0,0-.47.57.73.73,0,0,0,.06.58.79.79,0,0,0,.46.38.64.64,0,0,0,.47-.05.62.62,0,0,0,.3-.36.47.47,0,0,0-.32-.59.23.23,0,1,1,.13-.44.93.93,0,0,1,.63,1.16,1,1,0,0,1-.52.63,1.07,1.07,0,0,1-.82.08,1.22,1.22,0,0,1-.84-1.52,1.42,1.42,0,0,1,.7-.84,1.45,1.45,0,0,1,1.1-.11,1.64,1.64,0,0,1,1.12,2c-.28,1-1.2,1.48-2.71,1.48H2.78c-1.52,0-2.43-.5-2.71-1.48a1.63,1.63,0,0,1,1.12-2A1.51,1.51,0,0,1,1.6,26Z"/><path class="cls-1" d="M48,14.88a.67.67,0,1,0,.67.67A.67.67,0,0,0,48,14.88Z"/><path class="cls-1" d="M36.79,11.38a.67.67,0,1,0,.68.67A.67.67,0,0,0,36.79,11.38Z"/><path class="cls-1" d="M24.27,23.5a.69.69,0,0,0-.68.68.68.68,0,0,0,.68.67.67.67,0,0,0,.67-.67A.68.68,0,0,0,24.27,23.5Z"/><path class="cls-1" d="M13.51,20.88a.67.67,0,0,0-.55.78.67.67,0,0,0,1.33-.23A.69.69,0,0,0,13.51,20.88Z"/><path class="cls-1" d="M7,20.16a.26.26,0,0,0-.2.29.25.25,0,0,0,.29.2.25.25,0,0,0,.2-.28A.26.26,0,0,0,7,20.16Z"/><path class="cls-1" d="M52.63,19.9a.32.32,0,1,0,.1.63.32.32,0,0,0,.26-.37A.31.31,0,0,0,52.63,19.9Z"/><path class="cls-1" d="M7.68,22a2.61,2.61,0,0,1-.48,0A1.38,1.38,0,0,1,6,20.64a1,1,0,0,1,.74-1.05.7.7,0,0,1,.71.2.65.65,0,0,1,.12.64.54.54,0,0,1-.46.33.33.33,0,0,1-.35-.3.22.22,0,0,1,0-.18.44.44,0,0,0-.15.35c0,.32.28.57.72.65a2.59,2.59,0,0,0,2.14-.8.33.33,0,0,1,.46,0,.31.31,0,0,1,0,.46A3.35,3.35,0,0,1,7.68,22Z"/><path class="cls-1" d="M52.85,21.09a.72.72,0,0,1-.65-.37.66.66,0,0,1,0-.68.56.56,0,0,1,.54-.23.31.31,0,0,1,.28.36.3.3,0,0,1-.2.26h0a.45.45,0,0,0,.39-.41c.07-.36-.17-.7-.65-.9a2.94,2.94,0,0,0-2.53.37.31.31,0,0,1-.45-.07.33.33,0,0,1,.07-.46,3.55,3.55,0,0,1,3.17-.45,1.49,1.49,0,0,1,1,1.63,1.11,1.11,0,0,1-1,.95Z"/><path class="cls-1" d="M47.81,27.87c-3.74,0-8.25-1.62-12.78-4.64l-1.16-.78c-5-3.35-11.18-7.53-17.58-6.52-4.28.68-5.62,2.8-6,4a4.4,4.4,0,0,0,.86,4.37,3.25,3.25,0,0,0,3.28,1,2.66,2.66,0,0,0,2.2-2.09,2.06,2.06,0,0,0-.92-2.06,1.88,1.88,0,0,0-2.15.34.31.31,0,0,1-.45-.06.32.32,0,0,1,.06-.46A2.52,2.52,0,0,1,16,20.56a2.74,2.74,0,0,1,1.23,2.72,3.25,3.25,0,0,1-2.67,2.63,3.88,3.88,0,0,1-3.93-1.17,5,5,0,0,1-1-5c.46-1.33,1.93-3.69,6.55-4.42,6.65-1.06,13,3.2,18.05,6.62l1.15.78c5.49,3.66,10.91,5.21,14.86,4.25A8.85,8.85,0,0,0,56,22.39a8.37,8.37,0,0,0-2.74-11.3,6,6,0,0,0-8.17,2A4.28,4.28,0,0,0,46.52,19a3,3,0,0,0,2.31.36,3,3,0,0,0,1.89-1.38A2.16,2.16,0,0,0,50,15a1.5,1.5,0,0,0-2.06.51.33.33,0,0,1-.56-.34,2.15,2.15,0,0,1,3-.72,2.81,2.81,0,0,1,.94,3.86,3.72,3.72,0,0,1-5.1,1.24A4.92,4.92,0,0,1,44,16.47a4.84,4.84,0,0,1,.58-3.73,6.58,6.58,0,0,1,9.06-2.2,9,9,0,0,1,3,12.17,9.44,9.44,0,0,1-6.16,4.86A10.84,10.84,0,0,1,47.81,27.87Z"/><path class="cls-1" d="M23.71,24.57a.37.37,0,0,1-.08-.5.36.36,0,0,1,.58.41A.36.36,0,0,1,23.71,24.57Z"/><path class="cls-1" d="M23.53,26.23A2.76,2.76,0,0,1,21.2,24.7,2.87,2.87,0,0,1,21,22.35a4.54,4.54,0,0,1,2.4-2.52c2.45-1.12,6.53-.45,8.9.82a.32.32,0,1,1-.31.57C29.79,20,26,19.39,23.7,20.43a3.84,3.84,0,0,0-2.05,2.13,2.23,2.23,0,0,0,.13,1.84A1.93,1.93,0,0,0,24,25.49a1.25,1.25,0,0,0,.65-.67.65.65,0,0,0,0-.53.39.39,0,0,0-.47-.22.07.07,0,0,0,0,.05.06.06,0,0,0,0,.06.35.35,0,0,1-.18.43.33.33,0,0,1-.43-.18.76.76,0,0,1,.41-1,1,1,0,0,1,1.29.52,1.33,1.33,0,0,1,.07,1.07,1.84,1.84,0,0,1-1,1A2,2,0,0,1,23.53,26.23Z"/><path class="cls-1" d="M38.27,17.46H38a5.49,5.49,0,0,1-3.9-2.2,3.53,3.53,0,0,1,.64-4.94,2.15,2.15,0,0,1,1.59-.43,2.21,2.21,0,0,1,1.43.82,1.39,1.39,0,0,1-.25,1.92.93.93,0,0,1-1.29-.17.62.62,0,0,1-.13-.49.64.64,0,0,1,.25-.44.32.32,0,0,1,.46.06.33.33,0,0,1-.06.46.22.22,0,0,0,.17.11.29.29,0,0,0,.2-.05.72.72,0,0,0,.13-1,1.49,1.49,0,0,0-1-.57,1.47,1.47,0,0,0-1.1.3A2.8,2.8,0,0,0,34,12.73a2.85,2.85,0,0,0,.57,2.13A4.86,4.86,0,0,0,38,16.8a5.71,5.71,0,0,0,4.19-1.88c.64-.62,1.18-1.23,1.7-1.82,1.46-1.64,2.71-3,5.07-3.43a.32.32,0,0,1,.1.64c-2.13.34-3.25,1.61-4.68,3.22-.53.6-1.08,1.22-1.74,1.86A6.43,6.43,0,0,1,38.27,17.46Z"/><path class="cls-1" d="M57.13,16a.33.33,0,0,1-.32-.25C56.29,13.54,55,12.41,53.44,11c-.57-.51-1.16-1-1.77-1.66a6.24,6.24,0,0,1-2.1-4.66A5.48,5.48,0,0,1,51.73.75,3.45,3.45,0,0,1,54.32,0a3.47,3.47,0,0,1,2.35,1.32,2.1,2.1,0,0,1,.45,1.58,2.13,2.13,0,0,1-.81,1.43,1.36,1.36,0,0,1-1.92-.23.9.9,0,0,1-.19-.67.91.91,0,0,1,.35-.61.66.66,0,0,1,.93.11.32.32,0,1,1-.51.4.23.23,0,0,0-.12.18.22.22,0,0,0,.06.19.71.71,0,0,0,1,.12,1.52,1.52,0,0,0,.56-1,1.46,1.46,0,0,0-.31-1.1A2.87,2.87,0,0,0,54.24.67a2.82,2.82,0,0,0-2.11.6,4.83,4.83,0,0,0-1.91,3.44,5.69,5.69,0,0,0,1.91,4.17c.6.6,1.18,1.12,1.74,1.62,1.61,1.44,3,2.69,3.58,5.08a.33.33,0,0,1-.25.39Z"/><path class="cls-1" d="M66.81,14.88a.67.67,0,1,1-.67.67A.67.67,0,0,1,66.81,14.88Z"/><path class="cls-1" d="M78,11.38a.67.67,0,1,1-.67.67A.67.67,0,0,1,78,11.38Z"/><path class="cls-1" d="M90.57,23.5a.68.68,0,0,1,.67.68.67.67,0,0,1-1.34,0A.68.68,0,0,1,90.57,23.5Z"/><path class="cls-1" d="M101.33,20.88a.67.67,0,1,1-.78.55A.68.68,0,0,1,101.33,20.88Z"/><path class="cls-1" d="M107.84,20.16a.26.26,0,0,1,.21.29.26.26,0,0,1-.29.2.25.25,0,0,1,.08-.49Z"/><path class="cls-1" d="M62.21,19.9a.32.32,0,1,1-.11.63.32.32,0,0,1-.26-.37A.32.32,0,0,1,62.21,19.9Z"/><path class="cls-1" d="M107.16,22a2.8,2.8,0,0,0,.48,0,1.37,1.37,0,0,0,1.24-1.28,1,1,0,0,0-.74-1.05.69.69,0,0,0-.7.2.63.63,0,0,0-.12.64.53.53,0,0,0,.46.33.34.34,0,0,0,.35-.3.27.27,0,0,0,0-.18.41.41,0,0,1,.14.35c0,.32-.27.57-.71.65a2.57,2.57,0,0,1-2.14-.8.34.34,0,0,0-.47,0,.33.33,0,0,0,0,.46A3.38,3.38,0,0,0,107.16,22Z"/><path class="cls-1" d="M62,21.09a.73.73,0,0,0,.65-.37.66.66,0,0,0,0-.68.54.54,0,0,0-.53-.23.33.33,0,0,0-.29.36.33.33,0,0,0,.21.26h0a.44.44,0,0,1-.39-.41c-.07-.36.17-.7.64-.9a2.92,2.92,0,0,1,2.53.37.32.32,0,0,0,.46-.07.33.33,0,0,0-.08-.46A3.51,3.51,0,0,0,62,18.51a1.5,1.5,0,0,0-1,1.63,1.11,1.11,0,0,0,1,.95Z"/><path class="cls-1" d="M67,27.87c3.74,0,8.25-1.62,12.79-4.64L81,22.45c5-3.35,11.19-7.53,17.59-6.52,4.28.68,5.62,2.8,6,4a4.4,4.4,0,0,1-.85,4.37,3.26,3.26,0,0,1-3.29,1,2.66,2.66,0,0,1-2.19-2.09,2.06,2.06,0,0,1,.91-2.06,1.88,1.88,0,0,1,2.15.34.32.32,0,0,0,.46-.06.33.33,0,0,0-.06-.46,2.54,2.54,0,0,0-2.88-.39,2.76,2.76,0,0,0-1.23,2.72,3.26,3.26,0,0,0,2.68,2.63,3.89,3.89,0,0,0,3.93-1.17,5,5,0,0,0,1-5c-.47-1.33-1.93-3.69-6.55-4.42-6.66-1.06-13,3.2-18.05,6.62l-1.16.78C74,26.35,68.54,27.9,64.58,26.94a8.84,8.84,0,0,1-5.74-4.55,8.36,8.36,0,0,1,2.74-11.3,6,6,0,0,1,8.16,2A4.26,4.26,0,0,1,68.31,19a3.06,3.06,0,0,1-4.2-1,2.18,2.18,0,0,1,.72-3,1.5,1.5,0,0,1,2.06.51.33.33,0,0,0,.45.1.31.31,0,0,0,.11-.44,2.14,2.14,0,0,0-3-.72,2.8,2.8,0,0,0-.94,3.86A3.61,3.61,0,0,0,65.85,20a3.66,3.66,0,0,0,2.8-.43,4.93,4.93,0,0,0,1.65-6.78,6.59,6.59,0,0,0-9.06-2.2,9,9,0,0,0-3,12.17,9.42,9.42,0,0,0,6.16,4.86A10.82,10.82,0,0,0,67,27.87Z"/><path class="cls-1" d="M91.12,24.57a.36.36,0,1,0-.41-.58.34.34,0,0,0-.08.49A.35.35,0,0,0,91.12,24.57Z"/><path class="cls-1" d="M91.3,26.23a2.75,2.75,0,0,0,2.33-1.53,2.92,2.92,0,0,0,.18-2.35,4.61,4.61,0,0,0-2.4-2.52c-2.45-1.12-6.53-.45-8.91.82a.33.33,0,0,0-.13.44.32.32,0,0,0,.44.13c2.24-1.19,6.06-1.83,8.32-.79a3.89,3.89,0,0,1,2.06,2.13,2.27,2.27,0,0,1-.13,1.84,1.94,1.94,0,0,1-2.22,1.09,1.23,1.23,0,0,1-.64-.67.62.62,0,0,1,0-.53.39.39,0,0,1,.47-.22.08.08,0,0,1,0,.05s0,0,0,.06a.33.33,0,0,0,.18.43.31.31,0,0,0,.42-.18.71.71,0,0,0,0-.57.78.78,0,0,0-.4-.4,1,1,0,0,0-1.29.52,1.29,1.29,0,0,0-.07,1.07,1.83,1.83,0,0,0,1.71,1.18Z"/><path class="cls-1" d="M76.56,17.46h.29a5.47,5.47,0,0,0,3.89-2.2,3.46,3.46,0,0,0,.71-2.6,3.54,3.54,0,0,0-1.34-2.34,2.15,2.15,0,0,0-3,.39,1.37,1.37,0,0,0,.25,1.92.91.91,0,0,0,.68.18.93.93,0,0,0,.61-.35.66.66,0,0,0,.13-.49.64.64,0,0,0-.25-.44.33.33,0,1,0-.4.52.23.23,0,0,1-.18.11.25.25,0,0,1-.19-.05.72.72,0,0,1-.13-1,1.5,1.5,0,0,1,2.1-.27,2.88,2.88,0,0,1,.52,4,4.88,4.88,0,0,1-3.42,1.94,5.69,5.69,0,0,1-4.19-1.88c-.64-.62-1.18-1.23-1.71-1.82-1.45-1.64-2.7-3-5.06-3.43a.33.33,0,0,0-.38.27.33.33,0,0,0,.27.37c2.13.34,3.26,1.61,4.68,3.22.54.6,1.09,1.22,1.75,1.86A6.41,6.41,0,0,0,76.56,17.46Z"/><path class="cls-1" d="M57.71,16a.32.32,0,0,0,.31-.25c.53-2.19,1.79-3.32,3.38-4.74.57-.51,1.15-1,1.77-1.66a6.28,6.28,0,0,0,2.1-4.66A5.52,5.52,0,0,0,63.11.75a3.54,3.54,0,0,0-5,.6,2.15,2.15,0,0,0,.36,3,1.36,1.36,0,0,0,1.92-.23.91.91,0,0,0-.15-1.28.67.67,0,0,0-.49-.14.66.66,0,0,0-.45.25.33.33,0,1,0,.52.4.22.22,0,0,1,.11.18.25.25,0,0,1,0,.19.71.71,0,0,1-1,.12,1.44,1.44,0,0,1-.56-1,1.46,1.46,0,0,1,.31-1.1,2.86,2.86,0,0,1,4-.48,4.83,4.83,0,0,1,1.91,3.44A5.67,5.67,0,0,1,62.7,8.88c-.6.6-1.18,1.12-1.74,1.62-1.61,1.44-3,2.69-3.57,5.08a.33.33,0,0,0,.24.39Z"/><path class="cls-1" d="M1.6,26a1.53,1.53,0,0,1,.69.17A1.46,1.46,0,0,1,3,27a1.25,1.25,0,0,1-.09.95,1.23,1.23,0,0,1-.74.6,1,1,0,0,1-.82-.08,1.05,1.05,0,0,1-.53-.64,1,1,0,0,1,.63-1.18.24.24,0,0,1,.29.16.23.23,0,0,1-.15.29.47.47,0,0,0-.32.6.61.61,0,0,0,.29.36.6.6,0,0,0,.47.05.77.77,0,0,0,.47-.38.76.76,0,0,0,.06-.59,1,1,0,0,0-1.22-.66A1.22,1.22,0,0,0,.51,28c.23.78,1,1.16,2.27,1.16h7c25.16,0,101.72,0,102.33,0,1.3,0,2-.38,2.26-1.16a1.21,1.21,0,0,0-.81-1.51,1,1,0,0,0-.74.08.94.94,0,0,0-.47.58.78.78,0,0,0,.52,1,.59.59,0,0,0,.47-.05.62.62,0,0,0,.3-.36.48.48,0,0,0-.32-.6.23.23,0,0,1,.13-.45,1,1,0,0,1,.63,1.18,1,1,0,0,1-.52.64,1,1,0,0,1-.82.08A1.23,1.23,0,0,1,112,28a1.26,1.26,0,0,1-.1-.95,1.45,1.45,0,0,1,1.8-1,1.68,1.68,0,0,1,1.12,2.08c-.28,1-1.2,1.5-2.71,1.5H2.78c-1.52,0-2.43-.51-2.71-1.5A1.66,1.66,0,0,1,1.19,26,1.51,1.51,0,0,1,1.6,26Z"/><path class="cls-1" d="M66.81,75.26a.64.64,0,1,0-.67-.63A.65.65,0,0,0,66.81,75.26Z"/><path class="cls-1" d="M78,78.57a.64.64,0,1,0-.67-.64A.65.65,0,0,0,78,78.57Z"/><path class="cls-1" d="M90.57,67.11a.64.64,0,1,0-.67-.64A.65.65,0,0,0,90.57,67.11Z"/><path class="cls-1" d="M101.33,69.59a.65.65,0,0,0,.55-.73.67.67,0,0,0-.78-.52.64.64,0,0,0-.55.73A.67.67,0,0,0,101.33,69.59Z"/><path class="cls-1" d="M107.84,70.27a.24.24,0,0,0,.21-.27.24.24,0,0,0-.29-.19.23.23,0,0,0-.2.27A.25.25,0,0,0,107.84,70.27Z"/><path class="cls-1" d="M62.21,70.52a.31.31,0,0,0,.26-.35.33.33,0,0,0-.37-.25.31.31,0,0,0-.26.35A.32.32,0,0,0,62.21,70.52Z"/><path class="cls-1" d="M107.16,68.56a2.06,2.06,0,0,1,.48,0,1.32,1.32,0,0,1,1.24,1.2,1,1,0,0,1-.74,1,.71.71,0,0,1-.7-.19.57.57,0,0,1-.12-.6.51.51,0,0,1,.46-.31.32.32,0,0,1,.35.28.25.25,0,0,1,0,.17.41.41,0,0,0,.14-.33c0-.31-.27-.54-.72-.62a2.62,2.62,0,0,0-2.13.76.36.36,0,0,1-.47,0,.31.31,0,0,1,0-.44A3.49,3.49,0,0,1,107.16,68.56Z"/><path class="cls-1" d="M62,69.39a.74.74,0,0,1,.65.35.59.59,0,0,1,0,.64.53.53,0,0,1-.53.22.31.31,0,0,1-.29-.34A.33.33,0,0,1,62,70h0a.45.45,0,0,0-.39.39c-.07.35.17.67.64.86a3,3,0,0,0,2.53-.36.34.34,0,0,1,.46.07.3.3,0,0,1-.08.43,3.67,3.67,0,0,1-3.16.43,1.41,1.41,0,0,1-1-1.54,1.09,1.09,0,0,1,1-.9Z"/><path class="cls-1" d="M67,63c3.74,0,8.25,1.52,12.79,4.38L81,68.1c5,3.18,11.19,7.13,17.59,6.17,4.28-.65,5.62-2.65,6-3.78a4,4,0,0,0-.85-4.13,3.36,3.36,0,0,0-3.29-.92,2.57,2.57,0,0,0-2.19,2,1.92,1.92,0,0,0,.91,2,2,2,0,0,0,2.15-.33.34.34,0,0,1,.46.06.3.3,0,0,1-.06.43,2.64,2.64,0,0,1-2.88.37,2.55,2.55,0,0,1-1.23-2.57,3.19,3.19,0,0,1,2.68-2.48,4,4,0,0,1,3.93,1.1,4.56,4.56,0,0,1,1,4.75c-.46,1.27-1.93,3.49-6.55,4.18-6.66,1-13-3-18.05-6.25-.39-.26-.78-.5-1.16-.74-5.48-3.45-10.9-4.92-14.86-4a8.77,8.77,0,0,0-5.74,4.3,7.65,7.65,0,0,0,2.74,10.68,6.21,6.21,0,0,0,4.49.66A5.91,5.91,0,0,0,69.74,77a3.81,3.81,0,0,0,.51-3.06,4.06,4.06,0,0,0-1.94-2.5A3.2,3.2,0,0,0,66,71.06a3.09,3.09,0,0,0-1.89,1.31,2,2,0,0,0,.73,2.8,1.54,1.54,0,0,0,2-.47.35.35,0,0,1,.45-.11.3.3,0,0,1,.11.43,2.22,2.22,0,0,1-3,.68,2.57,2.57,0,0,1-.94-3.65,3.68,3.68,0,0,1,2.29-1.59,3.85,3.85,0,0,1,2.8.42,4.62,4.62,0,0,1,2.23,2.88,4.39,4.39,0,0,1-.58,3.52,6.58,6.58,0,0,1-4.08,2.82,6.86,6.86,0,0,1-5-.74,8.24,8.24,0,0,1-3-11.5,9.43,9.43,0,0,1,6.16-4.6A12,12,0,0,1,67,63Z"/><path class="cls-1" d="M91.12,66.11a.32.32,0,0,1,.09.46.37.37,0,0,1-.5.08.31.31,0,0,1-.08-.46A.36.36,0,0,1,91.12,66.11Z"/><path class="cls-1" d="M91.3,64.54A2.75,2.75,0,0,1,93.63,66a2.62,2.62,0,0,1,.18,2.22,4.46,4.46,0,0,1-2.41,2.38c-2.44,1.06-6.52.42-8.9-.77a.31.31,0,0,1-.13-.42.33.33,0,0,1,.44-.12c2.24,1.12,6.06,1.73,8.32.75a3.78,3.78,0,0,0,2.06-2,2,2,0,0,0-.13-1.74,2,2,0,0,0-2.22-1,1.15,1.15,0,0,0-.64.62.55.55,0,0,0,0,.5.4.4,0,0,0,.47.22.08.08,0,0,0,0,0,.11.11,0,0,0,0-.06.3.3,0,0,1,.18-.4.32.32,0,0,1,.42.17.62.62,0,0,1,0,.53.74.74,0,0,1-.4.38,1.06,1.06,0,0,1-1.29-.49,1.15,1.15,0,0,1-.07-1,1.8,1.8,0,0,1,1-1A1.85,1.85,0,0,1,91.3,64.54Z"/><path class="cls-1" d="M76.56,72.82h.29a5.57,5.57,0,0,1,3.89,2.08,3.15,3.15,0,0,1,.71,2.46,3.31,3.31,0,0,1-1.34,2.21,2.24,2.24,0,0,1-1.59.4,2.17,2.17,0,0,1-1.43-.77,1.24,1.24,0,0,1,.25-1.81,1,1,0,0,1,.68-.17.91.91,0,0,1,.61.33.59.59,0,0,1,.13.46.62.62,0,0,1-.25.42.34.34,0,0,1-.46-.06.29.29,0,0,1,.06-.43.23.23,0,0,0-.18-.11.25.25,0,0,0-.19,0,.65.65,0,0,0-.13.94,1.51,1.51,0,0,0,1,.54,1.56,1.56,0,0,0,1.11-.28,2.68,2.68,0,0,0,1.09-1.8,2.59,2.59,0,0,0-.57-2,4.92,4.92,0,0,0-3.42-1.83,5.81,5.81,0,0,0-4.19,1.77c-.64.59-1.18,1.16-1.71,1.72-1.45,1.55-2.7,2.89-5.06,3.25a.34.34,0,0,1-.38-.26.31.31,0,0,1,.28-.35c2.12-.33,3.25-1.53,4.67-3,.54-.56,1.09-1.15,1.74-1.75A6.65,6.65,0,0,1,76.56,72.82Z"/><path class="cls-1" d="M57.71,74.22a.32.32,0,0,1,.31.24c.53,2.07,1.79,3.13,3.38,4.48.57.48,1.15,1,1.77,1.56a5.82,5.82,0,0,1,2.1,4.4,5.13,5.13,0,0,1-2.16,3.71,3.68,3.68,0,0,1-2.6.69,3.57,3.57,0,0,1-2.35-1.25,2,2,0,0,1,.36-2.85,1.42,1.42,0,0,1,1.92.21.84.84,0,0,1,.19.64.86.86,0,0,1-.34.58.67.67,0,0,1-.49.13.68.68,0,0,1-.45-.23.31.31,0,0,1,.06-.44.34.34,0,0,1,.46.06A.22.22,0,0,0,60,86a.26.26,0,0,0,0-.19.74.74,0,0,0-1-.11,1.36,1.36,0,0,0-.56.95,1.33,1.33,0,0,0,.31,1,2.84,2.84,0,0,0,1.91,1,3,3,0,0,0,2.12-.56,4.52,4.52,0,0,0,1.91-3.25,5.23,5.23,0,0,0-1.92-3.94c-.6-.57-1.18-1.06-1.74-1.53-1.61-1.36-3-2.54-3.57-4.8a.31.31,0,0,1,.24-.37Z"/><path class="cls-1" d="M48,75.26A.64.64,0,1,1,48,74a.64.64,0,1,1,0,1.27Z"/><path class="cls-1" d="M36.8,78.57a.64.64,0,1,1,.67-.64A.65.65,0,0,1,36.8,78.57Z"/><path class="cls-1" d="M24.27,67.11a.64.64,0,1,1,0-1.27.64.64,0,1,1,0,1.27Z"/><path class="cls-1" d="M13.51,69.59a.64.64,0,0,1-.55-.73.66.66,0,0,1,.77-.52.64.64,0,0,1,.56.73A.67.67,0,0,1,13.51,69.59Z"/><path class="cls-1" d="M7,70.27a.23.23,0,1,1,.29-.19A.26.26,0,0,1,7,70.27Z"/><path class="cls-1" d="M52.63,70.52a.31.31,0,0,1-.27-.35.33.33,0,0,1,.37-.25.3.3,0,0,1,.26.35A.31.31,0,0,1,52.63,70.52Z"/><path class="cls-1" d="M7.68,68.56a2,2,0,0,0-.48,0A1.33,1.33,0,0,0,6,69.81a1,1,0,0,0,.74,1,.72.72,0,0,0,.71-.19.59.59,0,0,0,.12-.6.52.52,0,0,0-.46-.31.31.31,0,0,0-.35.28.21.21,0,0,0,0,.17.41.41,0,0,1-.15-.33c0-.31.28-.54.72-.62A2.64,2.64,0,0,1,9.46,70a.35.35,0,0,0,.46,0,.29.29,0,0,0,0-.44A3.45,3.45,0,0,0,7.68,68.56Z"/><path class="cls-1" d="M52.85,69.39a.72.72,0,0,0-.65.35.57.57,0,0,0,0,.64.55.55,0,0,0,.54.22.29.29,0,0,0,.28-.34.3.3,0,0,0-.2-.25h0a.45.45,0,0,1,.39.39c.07.35-.17.67-.65.86a3.07,3.07,0,0,1-2.53-.36.33.33,0,0,0-.45.07.3.3,0,0,0,.07.43,3.71,3.71,0,0,0,3.17.43,1.4,1.4,0,0,0,1-1.54,1.09,1.09,0,0,0-1-.9Z"/><path class="cls-1" d="M47.81,63c-3.74,0-8.25,1.52-12.78,4.38l-1.16.73c-5,3.18-11.18,7.13-17.58,6.17-4.28-.65-5.62-2.65-6-3.78a4,4,0,0,1,.86-4.13,3.35,3.35,0,0,1,3.28-.92,2.57,2.57,0,0,1,2.2,2,1.93,1.93,0,0,1-.92,2A2,2,0,0,1,13.52,69a.33.33,0,0,0-.45.06.29.29,0,0,0,.06.43,2.62,2.62,0,0,0,2.87.37,2.54,2.54,0,0,0,1.23-2.57,3.17,3.17,0,0,0-2.67-2.48,4,4,0,0,0-3.93,1.1,4.56,4.56,0,0,0-1,4.75c.46,1.27,1.93,3.49,6.55,4.18,6.65,1,13-3,18.05-6.25l1.15-.74c5.49-3.45,10.91-4.92,14.86-4A8.79,8.79,0,0,1,56,68.16a7.66,7.66,0,0,1-2.74,10.68,6.23,6.23,0,0,1-4.5.66A5.94,5.94,0,0,1,45.09,77a3.85,3.85,0,0,1-.5-3.06,4.08,4.08,0,0,1,1.93-2.5,3.21,3.21,0,0,1,2.31-.34,3,3,0,0,1,1.89,1.31,2,2,0,0,1-.72,2.8,1.56,1.56,0,0,1-2.06-.47.34.34,0,0,0-.45-.11.31.31,0,0,0-.11.43,2.23,2.23,0,0,0,3,.68,2.58,2.58,0,0,0,.94-3.65A3.74,3.74,0,0,0,49,70.46a3.88,3.88,0,0,0-2.81.42A4.64,4.64,0,0,0,44,73.76a4.35,4.35,0,0,0,.58,3.52,6.56,6.56,0,0,0,4.07,2.82,6.88,6.88,0,0,0,5-.74,8.25,8.25,0,0,0,3-11.5,9.45,9.45,0,0,0-6.16-4.6A12,12,0,0,0,47.81,63Z"/><path class="cls-1" d="M23.72,66.11a.32.32,0,0,0-.09.46.36.36,0,0,0,.49.08.32.32,0,0,0,.09-.46A.36.36,0,0,0,23.72,66.11Z"/><path class="cls-1" d="M23.53,64.54A2.76,2.76,0,0,0,21.2,66,2.58,2.58,0,0,0,21,68.2a4.4,4.4,0,0,0,2.4,2.38c2.45,1.06,6.53.42,8.9-.77a.29.29,0,0,0,.13-.42.33.33,0,0,0-.44-.12C29.79,70.39,26,71,23.7,70a3.72,3.72,0,0,1-2.05-2,2,2,0,0,1,.13-1.74,2,2,0,0,1,2.21-1,1.12,1.12,0,0,1,.64.62.55.55,0,0,1,0,.5.4.4,0,0,1-.47.22.07.07,0,0,1,0,0s0,0,0-.06a.31.31,0,0,0-.18-.4.33.33,0,0,0-.43.17.65.65,0,0,0,0,.53.71.71,0,0,0,.4.38,1.06,1.06,0,0,0,1.29-.49,1.15,1.15,0,0,0,.07-1,1.8,1.8,0,0,0-1-1A1.9,1.9,0,0,0,23.53,64.54Z"/><path class="cls-1" d="M38.27,72.82H38a5.59,5.59,0,0,0-3.9,2.08,3.18,3.18,0,0,0-.7,2.46,3.27,3.27,0,0,0,1.34,2.21,2.23,2.23,0,0,0,1.59.4,2.14,2.14,0,0,0,1.42-.77,1.25,1.25,0,0,0-.24-1.81,1,1,0,0,0-.68-.17.91.91,0,0,0-.61.33.55.55,0,0,0-.13.46.62.62,0,0,0,.25.42.34.34,0,0,0,.46-.06.3.3,0,0,0-.06-.43.22.22,0,0,1,.17-.11.29.29,0,0,1,.2,0,.65.65,0,0,1,.13.94,1.56,1.56,0,0,1-2.1.26,2.63,2.63,0,0,1-.52-3.81A4.92,4.92,0,0,1,38,73.45a5.83,5.83,0,0,1,4.19,1.77c.64.59,1.18,1.16,1.7,1.72,1.46,1.55,2.71,2.89,5.07,3.25a.33.33,0,0,0,.37-.26.3.3,0,0,0-.27-.35c-2.13-.33-3.25-1.53-4.68-3-.53-.56-1.08-1.15-1.74-1.75A6.63,6.63,0,0,0,38.27,72.82Z"/><path class="cls-1" d="M57.13,74.22a.33.33,0,0,0-.32.24c-.52,2.07-1.78,3.13-3.37,4.48-.57.48-1.16,1-1.77,1.56a5.75,5.75,0,0,0-2.1,4.4,5.12,5.12,0,0,0,2.15,3.71,3.69,3.69,0,0,0,2.6.69,3.55,3.55,0,0,0,2.35-1.25,1.93,1.93,0,0,0,.45-1.5,2,2,0,0,0-.81-1.35,1.42,1.42,0,0,0-1.92.21.84.84,0,0,0-.19.64.87.87,0,0,0,.35.58.66.66,0,0,0,.49.13.68.68,0,0,0,.44-.23.31.31,0,0,0,0-.44.34.34,0,0,0-.46.06.23.23,0,0,1-.06-.36.74.74,0,0,1,1-.11,1.43,1.43,0,0,1,.56.95,1.33,1.33,0,0,1-.31,1,2.87,2.87,0,0,1-1.92,1,2.93,2.93,0,0,1-2.11-.56,4.52,4.52,0,0,1-1.91-3.25,5.25,5.25,0,0,1,1.91-3.94c.6-.57,1.18-1.06,1.74-1.53,1.61-1.36,3-2.54,3.58-4.8a.31.31,0,0,0-.25-.37Z"/><path class="cls-1" d="M113.23,64.77a1.48,1.48,0,0,1-.68-.16,1.36,1.36,0,0,1-.7-.81,1.11,1.11,0,0,1,.1-.89,1.22,1.22,0,0,1,.74-.57,1.11,1.11,0,0,1,.82.08,1,1,0,0,1,.52.6.88.88,0,0,1-.63,1.11.22.22,0,1,1-.13-.42.44.44,0,0,0,.32-.56.61.61,0,0,0-.3-.35.63.63,0,0,0-.47,0,.72.72,0,0,0-.46.36.69.69,0,0,0-.06.56.89.89,0,0,0,.47.54,1,1,0,0,0,.74.07,1.12,1.12,0,0,0,.81-1.42c-.22-.74-1-1.1-2.26-1.1H2.78c-1.3,0-2,.36-2.27,1.1a1.13,1.13,0,0,0,.81,1.42,1,1,0,0,0,.75-.07.93.93,0,0,0,.47-.54.69.69,0,0,0-.06-.56A.74.74,0,0,0,2,62.76a.64.64,0,0,0-.47,0,.59.59,0,0,0-.29.35.44.44,0,0,0,.32.56.22.22,0,0,1,.15.28.23.23,0,0,1-.29.14A.89.89,0,0,1,.8,63a1,1,0,0,1,.53-.6,1.11,1.11,0,0,1,.82-.08,1.22,1.22,0,0,1,.74.57A1.11,1.11,0,0,1,3,63.8a1.35,1.35,0,0,1-.69.81,1.5,1.5,0,0,1-1.1.1,1.56,1.56,0,0,1-1.12-2c.28-.94,1.19-1.42,2.71-1.42H112.06c1.51,0,2.43.48,2.71,1.42a1.57,1.57,0,0,1-1.12,2A1.52,1.52,0,0,1,113.23,64.77Z"/><path class="cls-1" d="M66.81,75.54a.65.65,0,1,0-.67-.65A.66.66,0,0,0,66.81,75.54Z"/><path class="cls-1" d="M78,78.92a.65.65,0,1,0-.67-.65A.66.66,0,0,0,78,78.92Z"/><path class="cls-1" d="M90.57,67.23a.65.65,0,1,0-.67-.65A.66.66,0,0,0,90.57,67.23Z"/><path class="cls-1" d="M101.33,69.76a.65.65,0,1,0-.23-1.28.65.65,0,0,0-.55.74A.67.67,0,0,0,101.33,69.76Z"/><path class="cls-1" d="M107.84,70.45a.25.25,0,0,0,.21-.28.24.24,0,0,0-.29-.19.23.23,0,0,0-.2.27A.25.25,0,0,0,107.84,70.45Z"/><path class="cls-1" d="M62.21,70.7a.3.3,0,0,0,.26-.35.31.31,0,0,0-.37-.25.31.31,0,0,0-.26.35A.32.32,0,0,0,62.21,70.7Z"/><path class="cls-1" d="M107.16,68.71a2.74,2.74,0,0,1,.48,0A1.35,1.35,0,0,1,108.88,70a1,1,0,0,1-.74,1,.71.71,0,0,1-.7-.19.6.6,0,0,1-.12-.62.53.53,0,0,1,.46-.32.34.34,0,0,1,.35.29.28.28,0,0,1,0,.18.43.43,0,0,0,.14-.34c0-.31-.27-.55-.72-.63a2.61,2.61,0,0,0-2.13.77.34.34,0,0,1-.47,0,.31.31,0,0,1,0-.44A3.42,3.42,0,0,1,107.16,68.71Z"/><path class="cls-1" d="M62,69.56a.74.74,0,0,1,.65.35.61.61,0,0,1,0,.65.54.54,0,0,1-.53.23.32.32,0,0,1-.29-.35.32.32,0,0,1,.21-.25h0a.44.44,0,0,0-.39.39c-.07.36.17.68.64.88a3,3,0,0,0,2.53-.37.34.34,0,0,1,.46.07.31.31,0,0,1-.08.44A3.59,3.59,0,0,1,62,72a1.44,1.44,0,0,1-1-1.57,1.08,1.08,0,0,1,1-.91Z"/><path class="cls-1" d="M67,63c3.74,0,8.25,1.56,12.79,4.47l1.15.75c5,3.24,11.19,7.26,17.59,6.29,4.28-.66,5.62-2.7,6-3.86a4.12,4.12,0,0,0-.85-4.21,3.33,3.33,0,0,0-3.29-.94,2.6,2.6,0,0,0-2.19,2,2,2,0,0,0,.91,2,2,2,0,0,0,2.15-.33.34.34,0,0,1,.46,0,.31.31,0,0,1-.06.44,2.46,2.46,0,0,1-4.11-2.24,3.22,3.22,0,0,1,2.68-2.53A4,4,0,0,1,104.21,66a4.73,4.73,0,0,1,1,4.85c-.46,1.29-1.93,3.56-6.55,4.27-6.66,1-13-3.09-18.05-6.39L79.44,68c-5.48-3.52-10.9-5-14.86-4.09a8.76,8.76,0,0,0-5.74,4.38,7.88,7.88,0,0,0,2.74,10.89,6.11,6.11,0,0,0,4.49.67,5.87,5.87,0,0,0,3.67-2.59,4,4,0,0,0,.51-3.12,4.09,4.09,0,0,0-1.94-2.54,3.12,3.12,0,0,0-4.2,1,2,2,0,0,0,.73,2.86,1.53,1.53,0,0,0,2-.48.34.34,0,0,1,.45-.11.31.31,0,0,1,.11.43,2.2,2.2,0,0,1-3,.7,2.66,2.66,0,0,1-.94-3.73,3.64,3.64,0,0,1,2.29-1.61,3.75,3.75,0,0,1,2.8.42A4.71,4.71,0,0,1,70.88,74a4.55,4.55,0,0,1-.58,3.59,6.54,6.54,0,0,1-4.08,2.87,6.71,6.71,0,0,1-5-.74,8.5,8.5,0,0,1-3-11.73,9.42,9.42,0,0,1,6.16-4.7A11.36,11.36,0,0,1,67,63Z"/><path class="cls-1" d="M91.12,66.2a.34.34,0,0,1,.09.48.37.37,0,0,1-.5.08.32.32,0,0,1-.08-.47A.36.36,0,0,1,91.12,66.2Z"/><path class="cls-1" d="M91.3,64.6a2.76,2.76,0,0,1,2.33,1.47,2.73,2.73,0,0,1,.18,2.27,4.51,4.51,0,0,1-2.41,2.43c-2.44,1.07-6.52.43-8.9-.79a.31.31,0,0,1-.13-.42.32.32,0,0,1,.44-.13c2.24,1.14,6.06,1.76,8.32.76a3.78,3.78,0,0,0,2.06-2.06,2.11,2.11,0,0,0-.13-1.77,2,2,0,0,0-2.22-1,1.16,1.16,0,0,0-.64.63.59.59,0,0,0,0,.52.39.39,0,0,0,.47.21.11.11,0,0,0,0,0,.16.16,0,0,0,0-.07.31.31,0,0,1,.18-.41.32.32,0,0,1,.42.18.64.64,0,0,1,0,.54.76.76,0,0,1-.4.39,1.06,1.06,0,0,1-1.29-.5,1.2,1.2,0,0,1-.07-1A1.82,1.82,0,0,1,91.3,64.6Z"/><path class="cls-1" d="M76.56,73.06h.29a5.55,5.55,0,0,1,3.89,2.12,3.27,3.27,0,0,1,.71,2.51,3.35,3.35,0,0,1-1.34,2.25,2.2,2.2,0,0,1-1.59.42,2.15,2.15,0,0,1-1.43-.79,1.29,1.29,0,0,1,.25-1.85,1,1,0,0,1,1.29.16.64.64,0,0,1,.13.48.6.6,0,0,1-.25.42.33.33,0,0,1-.46-.06.3.3,0,0,1,.06-.44.23.23,0,0,0-.18-.11.25.25,0,0,0-.19,0,.67.67,0,0,0-.13,1,1.48,1.48,0,0,0,1,.55,1.56,1.56,0,0,0,1.11-.28,2.79,2.79,0,0,0,1.09-1.84,2.67,2.67,0,0,0-.57-2,4.94,4.94,0,0,0-3.42-1.87,5.75,5.75,0,0,0-4.19,1.81c-.64.6-1.18,1.19-1.71,1.76-1.45,1.58-2.7,2.94-5.06,3.3a.32.32,0,0,1-.38-.26.33.33,0,0,1,.28-.36c2.12-.33,3.25-1.55,4.67-3.1.54-.58,1.09-1.18,1.74-1.79A6.56,6.56,0,0,1,76.56,73.06Z"/><path class="cls-1" d="M57.71,74.48a.32.32,0,0,1,.31.24c.53,2.11,1.79,3.2,3.38,4.57.57.49,1.15,1,1.77,1.6a6,6,0,0,1,2.1,4.49,5.26,5.26,0,0,1-2.16,3.78,3.62,3.62,0,0,1-5-.57,2,2,0,0,1,.36-2.91,1.4,1.4,0,0,1,1.92.22.85.85,0,0,1,.19.65.88.88,0,0,1-.34.59.67.67,0,0,1-.49.13.65.65,0,0,1-.45-.24.31.31,0,0,1,.06-.44.33.33,0,0,1,.46.06.25.25,0,0,0,.11-.17.25.25,0,0,0,0-.19.73.73,0,0,0-1-.12,1.38,1.38,0,0,0-.56,1,1.39,1.39,0,0,0,.31,1.07,2.83,2.83,0,0,0,1.91,1,2.92,2.92,0,0,0,2.12-.57,4.61,4.61,0,0,0,1.91-3.31,5.35,5.35,0,0,0-1.92-4c-.6-.59-1.18-1.09-1.74-1.57-1.61-1.39-3-2.59-3.57-4.89a.32.32,0,0,1,.24-.38Z"/><path class="cls-1" d="M48,75.54a.65.65,0,1,1,0-1.3.65.65,0,1,1,0,1.3Z"/><path class="cls-1" d="M36.8,78.92a.65.65,0,1,1,.67-.65A.66.66,0,0,1,36.8,78.92Z"/><path class="cls-1" d="M24.27,67.23a.65.65,0,1,1,0-1.3.65.65,0,1,1,0,1.3Z"/><path class="cls-1" d="M13.51,69.76A.65.65,0,0,1,13,69a.66.66,0,0,1,.77-.53.65.65,0,0,1,.56.74A.68.68,0,0,1,13.51,69.76Z"/><path class="cls-1" d="M7,70.45a.25.25,0,0,1-.2-.28.25.25,0,0,1,.49.08A.26.26,0,0,1,7,70.45Z"/><path class="cls-1" d="M52.63,70.7a.31.31,0,0,1-.27-.35.32.32,0,0,1,.37-.25.3.3,0,0,1,.26.35A.31.31,0,0,1,52.63,70.7Z"/><path class="cls-1" d="M7.68,68.71a2.59,2.59,0,0,0-.48,0A1.36,1.36,0,0,0,6,70a1,1,0,0,0,.74,1,.72.72,0,0,0,.71-.19.62.62,0,0,0,.12-.62.55.55,0,0,0-.46-.32.32.32,0,0,0-.35.29.23.23,0,0,0,0,.18A.44.44,0,0,1,6.6,70c0-.31.28-.55.72-.63a2.64,2.64,0,0,1,2.14.77.33.33,0,0,0,.46,0,.29.29,0,0,0,0-.44A3.38,3.38,0,0,0,7.68,68.71Z"/><path class="cls-1" d="M52.85,69.56a.72.72,0,0,0-.65.35.59.59,0,0,0,0,.65.56.56,0,0,0,.54.23.31.31,0,0,0,.28-.35.29.29,0,0,0-.2-.25h0a.44.44,0,0,1,.39.39c.07.36-.17.68-.65.88a3,3,0,0,1-2.53-.37.33.33,0,0,0-.45.07.31.31,0,0,0,.07.44,3.62,3.62,0,0,0,3.17.44,1.43,1.43,0,0,0,1-1.57,1.08,1.08,0,0,0-1-.91Z"/><path class="cls-1" d="M47.81,63c-3.74,0-8.25,1.56-12.78,4.47l-1.16.75c-5,3.24-11.18,7.26-17.58,6.29-4.28-.66-5.62-2.7-6-3.86a4.12,4.12,0,0,1,.86-4.21,3.31,3.31,0,0,1,3.28-.94,2.6,2.6,0,0,1,2.2,2,2,2,0,0,1-.92,2,2,2,0,0,1-2.15-.33.33.33,0,0,0-.45,0,.3.3,0,0,0,.06.44,2.57,2.57,0,0,0,2.87.38,2.6,2.6,0,0,0,1.23-2.62,3.19,3.19,0,0,0-2.67-2.53A4,4,0,0,0,10.63,66a4.73,4.73,0,0,0-1,4.85c.46,1.29,1.93,3.56,6.55,4.27,6.65,1,13-3.09,18.05-6.39L35.39,68c5.49-3.52,10.91-5,14.86-4.09A8.78,8.78,0,0,1,56,68.3a7.89,7.89,0,0,1-2.74,10.89,6.14,6.14,0,0,1-4.5.67,5.9,5.9,0,0,1-3.67-2.59,4,4,0,0,1-.5-3.12,4.11,4.11,0,0,1,1.93-2.54,3.11,3.11,0,0,1,2.31-.35,3,3,0,0,1,1.89,1.33A2,2,0,0,1,50,75.45,1.54,1.54,0,0,1,47.94,75a.33.33,0,0,0-.45-.11.31.31,0,0,0-.11.43,2.21,2.21,0,0,0,3,.7,2.66,2.66,0,0,0,.94-3.73A3.69,3.69,0,0,0,49,70.65a3.78,3.78,0,0,0-2.81.42A4.73,4.73,0,0,0,44,74a4.51,4.51,0,0,0,.58,3.59,6.51,6.51,0,0,0,4.07,2.87,6.74,6.74,0,0,0,5-.74,8.51,8.51,0,0,0,3-11.73,9.44,9.44,0,0,0-6.16-4.7A11.39,11.39,0,0,0,47.81,63Z"/><path class="cls-1" d="M23.72,66.2a.34.34,0,0,0-.09.48.36.36,0,0,0,.49.08.33.33,0,0,0,.09-.47A.36.36,0,0,0,23.72,66.2Z"/><path class="cls-1" d="M23.53,64.6a2.78,2.78,0,0,0-2.33,1.47A2.69,2.69,0,0,0,21,68.34a4.45,4.45,0,0,0,2.4,2.43c2.45,1.07,6.53.43,8.9-.79a.3.3,0,0,0,.13-.42.32.32,0,0,0-.44-.13c-2.23,1.14-6.05,1.76-8.32.76a3.73,3.73,0,0,1-2.05-2.06,2.07,2.07,0,0,1,.13-1.77,2,2,0,0,1,2.21-1,1.13,1.13,0,0,1,.64.63.59.59,0,0,1,0,.52.39.39,0,0,1-.47.21s0,0,0,0a.08.08,0,0,1,0-.07.33.33,0,0,0-.18-.41.34.34,0,0,0-.43.18.68.68,0,0,0,0,.54.73.73,0,0,0,.4.39,1.06,1.06,0,0,0,1.29-.5,1.2,1.2,0,0,0,.07-1,1.85,1.85,0,0,0-1-1A1.9,1.9,0,0,0,23.53,64.6Z"/><path class="cls-1" d="M38.27,73.06H38a5.57,5.57,0,0,0-3.9,2.12,3.32,3.32,0,0,0,.64,4.76,2.19,2.19,0,0,0,1.59.42,2.13,2.13,0,0,0,1.42-.79,1.29,1.29,0,0,0-.24-1.85,1,1,0,0,0-.68-.17,1,1,0,0,0-.61.33.63.63,0,0,0,.12.9.33.33,0,0,0,.46-.06.31.31,0,0,0-.06-.44.22.22,0,0,1,.17-.11.29.29,0,0,1,.2,0,.67.67,0,0,1,.13,1,1.5,1.5,0,0,1-1,.55,1.53,1.53,0,0,1-1.1-.28A2.72,2.72,0,0,1,34,77.61a2.67,2.67,0,0,1,.57-2A4.94,4.94,0,0,1,38,73.69a5.76,5.76,0,0,1,4.19,1.81c.64.6,1.18,1.19,1.7,1.76,1.46,1.58,2.71,2.94,5.07,3.3a.31.31,0,1,0,.1-.62c-2.13-.33-3.25-1.55-4.68-3.1-.53-.58-1.08-1.18-1.74-1.79A6.54,6.54,0,0,0,38.27,73.06Z"/><path class="cls-1" d="M57.13,74.48a.33.33,0,0,0-.32.24c-.52,2.11-1.78,3.2-3.37,4.57-.57.49-1.16,1-1.77,1.6a5.9,5.9,0,0,0-2.1,4.49,5.25,5.25,0,0,0,2.15,3.78,3.6,3.6,0,0,0,2.6.7,3.53,3.53,0,0,0,2.35-1.27,2,2,0,0,0,.45-1.53,2,2,0,0,0-.81-1.38,1.4,1.4,0,0,0-1.92.22.85.85,0,0,0-.19.65.89.89,0,0,0,.35.59.68.68,0,0,0,.93-.11.31.31,0,0,0,0-.44.33.33,0,0,0-.46.06.27.27,0,0,1-.12-.17.22.22,0,0,1,.06-.19.73.73,0,0,1,1-.12,1.45,1.45,0,0,1,.56,1,1.39,1.39,0,0,1-.31,1.07,2.85,2.85,0,0,1-1.92,1,2.89,2.89,0,0,1-2.11-.57,4.61,4.61,0,0,1-1.91-3.31,5.37,5.37,0,0,1,1.91-4c.6-.59,1.18-1.09,1.74-1.57,1.61-1.39,3-2.59,3.58-4.89a.32.32,0,0,0-.25-.38Z"/><path class="cls-1" d="M113.23,64.84a1.48,1.48,0,0,1-.68-.16,1.4,1.4,0,0,1-.7-.83,1.16,1.16,0,0,1,.1-.91,1.23,1.23,0,0,1,.74-.58,1.11,1.11,0,0,1,.82.08,1,1,0,0,1,.52.62.9.9,0,0,1-.63,1.13.23.23,0,0,1-.29-.15.24.24,0,0,1,.16-.28.45.45,0,0,0,.32-.57.6.6,0,0,0-.3-.36.63.63,0,0,0-.47,0,.72.72,0,0,0-.46.36.71.71,0,0,0-.06.57.93.93,0,0,0,.47.56,1,1,0,0,0,.74.07,1.15,1.15,0,0,0,.81-1.45c-.22-.75-1-1.12-2.26-1.12H2.78c-1.3,0-2,.37-2.27,1.12a1.16,1.16,0,0,0,.81,1.45,1,1,0,0,0,.75-.07,1,1,0,0,0,.47-.56.71.71,0,0,0-.06-.57A.74.74,0,0,0,2,62.79a.64.64,0,0,0-.47,0,.58.58,0,0,0-.29.36.45.45,0,0,0,.32.57.22.22,0,0,1,.15.28.22.22,0,0,1-.29.15A.91.91,0,0,1,.8,63.06a1,1,0,0,1,.53-.62,1.11,1.11,0,0,1,.82-.08,1.23,1.23,0,0,1,.74.58,1.16,1.16,0,0,1,.09.91,1.38,1.38,0,0,1-.69.83,1.5,1.5,0,0,1-1.1.1,1.59,1.59,0,0,1-1.12-2c.28-1,1.19-1.45,2.71-1.45H112.06c1.51,0,2.43.49,2.71,1.45a1.6,1.6,0,0,1-1.12,2A1.52,1.52,0,0,1,113.23,64.84Z"/><path class="cls-1" d="M66.81,75.83a.66.66,0,1,0-.67-.66A.66.66,0,0,0,66.81,75.83Z"/><path class="cls-1" d="M78,79.28a.67.67,0,1,0-.67-.67A.67.67,0,0,0,78,79.28Z"/><path class="cls-1" d="M90.57,67.35a.67.67,0,1,0-.67-.66A.67.67,0,0,0,90.57,67.35Z"/><path class="cls-1" d="M101.33,69.93a.67.67,0,1,0-.78-.54A.67.67,0,0,0,101.33,69.93Z"/><path class="cls-1" d="M107.84,70.63a.24.24,0,0,0,.21-.28.26.26,0,0,0-.29-.2.24.24,0,0,0-.2.28A.23.23,0,0,0,107.84,70.63Z"/><path class="cls-1" d="M62.21,70.9a.32.32,0,0,0,.26-.37.32.32,0,0,0-.63.11A.33.33,0,0,0,62.21,70.9Z"/><path class="cls-1" d="M107.16,68.86a2.74,2.74,0,0,1,.48,0,1.37,1.37,0,0,1,1.24,1.26,1,1,0,0,1-.74,1,.69.69,0,0,1-.7-.2.62.62,0,0,1-.12-.63.53.53,0,0,1,.46-.32.32.32,0,0,1,.35.29.27.27,0,0,1,0,.18.43.43,0,0,0,.14-.34c0-.32-.27-.56-.72-.65a2.6,2.6,0,0,0-2.13.79.34.34,0,0,1-.47,0,.32.32,0,0,1,0-.45A3.4,3.4,0,0,1,107.16,68.86Z"/><path class="cls-1" d="M62,69.72a.74.74,0,0,1,.65.36.64.64,0,0,1,0,.67.54.54,0,0,1-.53.23.32.32,0,0,1-.29-.35.33.33,0,0,1,.21-.26h0a.44.44,0,0,0-.39.4c-.07.36.17.7.64.89a2.92,2.92,0,0,0,2.53-.37.33.33,0,0,1,.46.08.31.31,0,0,1-.08.44,3.51,3.51,0,0,1-3.16.45,1.49,1.49,0,0,1-1-1.61,1.1,1.1,0,0,1,1-.93Z"/><path class="cls-1" d="M67,63.06c3.74,0,8.25,1.59,12.79,4.56l1.15.76c5,3.3,11.19,7.41,17.59,6.41,4.28-.66,5.62-2.74,6-3.93a4.27,4.27,0,0,0-.85-4.3,3.3,3.3,0,0,0-3.29-1,2.63,2.63,0,0,0-2.19,2.06,2,2,0,0,0,.91,2,1.93,1.93,0,0,0,2.15-.34.32.32,0,1,1,.4.51,2.57,2.57,0,0,1-2.88.38,2.69,2.69,0,0,1-1.23-2.67A3.25,3.25,0,0,1,100.28,65a3.94,3.94,0,0,1,3.93,1.15,4.88,4.88,0,0,1,1,4.94c-.46,1.32-1.93,3.64-6.55,4.36-6.66,1-13-3.15-18.05-6.52l-1.16-.76C74,64.55,68.54,63,64.58,64a8.81,8.81,0,0,0-5.74,4.47,8.13,8.13,0,0,0,2.74,11.11,6,6,0,0,0,8.16-2,4.1,4.1,0,0,0,.51-3.18,4.15,4.15,0,0,0-1.94-2.6,3.07,3.07,0,0,0-4.2,1,2.12,2.12,0,0,0,.73,2.92,1.5,1.5,0,0,0,2-.5.33.33,0,0,1,.45-.1.31.31,0,0,1,.11.44,2.17,2.17,0,0,1-3,.71,2.74,2.74,0,0,1-.94-3.8,3.62,3.62,0,0,1,2.29-1.65,3.71,3.71,0,0,1,2.8.43,4.81,4.81,0,0,1,2.23,3,4.73,4.73,0,0,1-.58,3.67,6.64,6.64,0,0,1-9.06,2.17,8.77,8.77,0,0,1-3-12,9.43,9.43,0,0,1,6.16-4.79A11.36,11.36,0,0,1,67,63.06Z"/><path class="cls-1" d="M91.12,66.3a.35.35,0,0,1,.09.49.37.37,0,0,1-.5.08.33.33,0,0,1-.08-.48A.35.35,0,0,1,91.12,66.3Z"/><path class="cls-1" d="M91.3,64.67a2.75,2.75,0,0,1,2.33,1.5,2.82,2.82,0,0,1,.18,2.31A4.56,4.56,0,0,1,91.4,71c-2.44,1.1-6.52.44-8.9-.8a.32.32,0,0,1,.31-.57c2.24,1.17,6.06,1.8,8.32.78a3.84,3.84,0,0,0,2.06-2.1,2.18,2.18,0,0,0-.13-1.8,1.94,1.94,0,0,0-2.22-1.07,1.2,1.2,0,0,0-.64.65.59.59,0,0,0,0,.52.39.39,0,0,0,.47.22.11.11,0,0,0,0,0,.16.16,0,0,0,0-.07.32.32,0,0,1,.18-.42.31.31,0,0,1,.42.18.68.68,0,0,1,0,.56.8.8,0,0,1-.4.39,1,1,0,0,1-1.29-.51,1.24,1.24,0,0,1-.07-1,1.8,1.8,0,0,1,1.71-1.16Z"/><path class="cls-1" d="M76.56,73.3h.29a5.53,5.53,0,0,1,3.89,2.16A3.38,3.38,0,0,1,81.45,78a3.43,3.43,0,0,1-1.34,2.3,2.17,2.17,0,0,1-3-.38,1.32,1.32,0,0,1,.25-1.88.91.91,0,0,1,.68-.18.92.92,0,0,1,.61.34.66.66,0,0,1-.12.92.33.33,0,0,1-.46-.06.31.31,0,0,1,.06-.45.25.25,0,0,0-.18-.12.22.22,0,0,0-.19.06.69.69,0,0,0-.13,1,1.49,1.49,0,0,0,1,.56,1.51,1.51,0,0,0,1.11-.29,2.85,2.85,0,0,0,1.09-1.88,2.76,2.76,0,0,0-.57-2.09,4.91,4.91,0,0,0-3.42-1.91,5.73,5.73,0,0,0-4.19,1.85c-.64.61-1.18,1.21-1.71,1.79-1.45,1.61-2.7,3-5.06,3.38a.33.33,0,0,1-.38-.27.34.34,0,0,1,.28-.37c2.12-.33,3.25-1.58,4.67-3.16.54-.59,1.09-1.21,1.74-1.83A6.48,6.48,0,0,1,76.56,73.3Z"/><path class="cls-1" d="M57.71,74.75A.32.32,0,0,1,58,75c.53,2.15,1.79,3.26,3.38,4.66.57.5,1.15,1,1.77,1.63a6.16,6.16,0,0,1,2.1,4.58,5.4,5.4,0,0,1-2.16,3.86,3.55,3.55,0,0,1-2.6.71,3.51,3.51,0,0,1-2.35-1.3,2.07,2.07,0,0,1-.44-1.56,2.1,2.1,0,0,1,.8-1.41,1.39,1.39,0,0,1,1.92.23.9.9,0,0,1-.15,1.27.67.67,0,0,1-.49.13.65.65,0,0,1-.45-.24.32.32,0,0,1,.06-.45.33.33,0,0,1,.46,0A.22.22,0,0,0,60,87a.25.25,0,0,0,0-.19.71.71,0,0,0-1-.12,1.4,1.4,0,0,0-.56,1,1.44,1.44,0,0,0,.31,1.09,2.85,2.85,0,0,0,1.91,1,2.89,2.89,0,0,0,2.12-.58,4.75,4.75,0,0,0,1.91-3.38,5.52,5.52,0,0,0-1.92-4.1c-.6-.6-1.18-1.11-1.74-1.6-1.61-1.42-3-2.64-3.57-5a.32.32,0,0,1,.24-.39Z"/><path class="cls-1" d="M48,75.83a.66.66,0,1,1,0-1.32.66.66,0,1,1,0,1.32Z"/><path class="cls-1" d="M36.8,79.28a.67.67,0,1,1,.67-.67A.67.67,0,0,1,36.8,79.28Z"/><path class="cls-1" d="M24.27,67.35a.67.67,0,1,1,.67-.66A.67.67,0,0,1,24.27,67.35Z"/><path class="cls-1" d="M13.51,69.93a.66.66,0,1,1,.22-1.31.67.67,0,0,1,.56.77A.68.68,0,0,1,13.51,69.93Z"/><path class="cls-1" d="M7,70.63a.24.24,0,0,1-.2-.28.25.25,0,0,1,.49.08A.24.24,0,0,1,7,70.63Z"/><path class="cls-1" d="M52.63,70.9a.33.33,0,0,1-.27-.37.32.32,0,0,1,.37-.25.3.3,0,0,1,.26.36A.32.32,0,0,1,52.63,70.9Z"/><path class="cls-1" d="M7.68,68.86a2.59,2.59,0,0,0-.48,0A1.38,1.38,0,0,0,6,70.16a1,1,0,0,0,.74,1A.7.7,0,0,0,7.4,71a.64.64,0,0,0,.12-.63.55.55,0,0,0-.46-.32.31.31,0,0,0-.35.29.22.22,0,0,0,0,.18.44.44,0,0,1-.15-.34c0-.32.28-.56.72-.65a2.62,2.62,0,0,1,2.14.79.33.33,0,0,0,.46,0,.3.3,0,0,0,0-.45A3.36,3.36,0,0,0,7.68,68.86Z"/><path class="cls-1" d="M52.85,69.72a.73.73,0,0,0-.65.36.62.62,0,0,0,0,.67.56.56,0,0,0,.54.23.31.31,0,0,0,.28-.35.3.3,0,0,0-.2-.26h0a.45.45,0,0,1,.39.4c.07.36-.17.7-.65.89a2.94,2.94,0,0,1-2.53-.37.32.32,0,0,0-.45.08.31.31,0,0,0,.07.44,3.55,3.55,0,0,0,3.17.45,1.48,1.48,0,0,0,1-1.61,1.1,1.1,0,0,0-1-.93Z"/><path class="cls-1" d="M47.81,63.06c-3.74,0-8.25,1.59-12.78,4.56l-1.16.76c-5,3.3-11.18,7.41-17.58,6.41-4.28-.66-5.62-2.74-6-3.93a4.28,4.28,0,0,1,.86-4.3,3.28,3.28,0,0,1,3.28-1,2.63,2.63,0,0,1,2.2,2.06,2,2,0,0,1-.92,2,1.94,1.94,0,0,1-2.15-.34.32.32,0,0,0-.45.05.32.32,0,0,0,.06.46,2.55,2.55,0,0,0,2.87.38,2.67,2.67,0,0,0,1.23-2.67A3.23,3.23,0,0,0,14.56,65a3.93,3.93,0,0,0-3.93,1.15,4.88,4.88,0,0,0-1,4.94c.46,1.32,1.93,3.64,6.55,4.36,6.65,1,13-3.15,18.05-6.52l1.15-.76C40.88,64.55,46.3,63,50.25,64A8.82,8.82,0,0,1,56,68.44a8.14,8.14,0,0,1-2.74,11.11,6,6,0,0,1-8.17-2,4.17,4.17,0,0,1,1.43-5.78,3.07,3.07,0,0,1,2.31-.36,3,3,0,0,1,1.89,1.36A2.1,2.1,0,0,1,50,75.74a1.52,1.52,0,0,1-2.06-.5.33.33,0,0,0-.45-.1.32.32,0,0,0-.11.44,2.18,2.18,0,0,0,3,.71,2.74,2.74,0,0,0,.94-3.8A3.67,3.67,0,0,0,49,70.84a3.74,3.74,0,0,0-2.81.43,4.83,4.83,0,0,0-2.22,3,4.69,4.69,0,0,0,.58,3.67,6.58,6.58,0,0,0,4.07,2.94,6.65,6.65,0,0,0,5-.77,8.78,8.78,0,0,0,3-12,9.45,9.45,0,0,0-6.16-4.79A11.39,11.39,0,0,0,47.81,63.06Z"/><path class="cls-1" d="M23.72,66.3a.35.35,0,0,0-.09.49.36.36,0,0,0,.49.08.34.34,0,0,0,.09-.48A.35.35,0,0,0,23.72,66.3Z"/><path class="cls-1" d="M23.53,64.67A2.85,2.85,0,0,0,21,68.48,4.5,4.5,0,0,0,23.43,71c2.45,1.1,6.53.44,8.9-.8a.32.32,0,0,0,.13-.44.33.33,0,0,0-.44-.13c-2.23,1.17-6.05,1.8-8.32.78a3.79,3.79,0,0,1-2.05-2.1,2.14,2.14,0,0,1,.13-1.8A1.93,1.93,0,0,1,24,65.4a1.17,1.17,0,0,1,.64.65.59.59,0,0,1,0,.52.39.39,0,0,1-.47.22s0,0,0,0a.08.08,0,0,1,0-.07.33.33,0,0,0-.18-.42.33.33,0,0,0-.43.18.73.73,0,0,0,0,.56.76.76,0,0,0,.4.39,1,1,0,0,0,1.29-.51,1.24,1.24,0,0,0,.07-1,1.86,1.86,0,0,0-1-1A1.9,1.9,0,0,0,23.53,64.67Z"/><path class="cls-1" d="M38.27,73.3H38a5.55,5.55,0,0,0-3.9,2.16,3.44,3.44,0,0,0,.64,4.86,2.15,2.15,0,0,0,3-.38,1.33,1.33,0,0,0-.24-1.88.93.93,0,0,0-.68-.18.92.92,0,0,0-.61.34.6.6,0,0,0-.13.48.64.64,0,0,0,.25.44.33.33,0,0,0,.46-.06.32.32,0,0,0-.06-.45.23.23,0,0,1,.17-.12.25.25,0,0,1,.2.06.69.69,0,0,1,.13,1,1.52,1.52,0,0,1-1,.56,1.49,1.49,0,0,1-1.1-.29,2.81,2.81,0,0,1-.52-4A4.91,4.91,0,0,1,38,73.94a5.74,5.74,0,0,1,4.19,1.85c.64.61,1.18,1.21,1.7,1.79,1.46,1.61,2.71,3,5.07,3.38a.32.32,0,0,0,.37-.27.32.32,0,0,0-.27-.37C47,80,45.84,78.74,44.41,77.16c-.53-.59-1.08-1.21-1.74-1.83A6.46,6.46,0,0,0,38.27,73.3Z"/><path class="cls-1" d="M57.13,74.75a.33.33,0,0,0-.32.25c-.52,2.15-1.78,3.26-3.37,4.66-.57.5-1.16,1-1.77,1.63a6.08,6.08,0,0,0-2.1,4.58,5.39,5.39,0,0,0,2.15,3.86,3.56,3.56,0,0,0,2.6.71,3.49,3.49,0,0,0,2.35-1.3,2,2,0,0,0,.45-1.56,2.11,2.11,0,0,0-.81-1.41,1.4,1.4,0,0,0-1.92.23.9.9,0,0,0-.19.67.91.91,0,0,0,.35.6.68.68,0,0,0,.93-.11.32.32,0,0,0,0-.45.33.33,0,0,0-.46,0,.23.23,0,0,1-.12-.17.22.22,0,0,1,.06-.19.71.71,0,0,1,1-.12,1.47,1.47,0,0,1,.56,1,1.44,1.44,0,0,1-.31,1.09,2.92,2.92,0,0,1-4,.47,4.75,4.75,0,0,1-1.91-3.38,5.54,5.54,0,0,1,1.91-4.1c.6-.6,1.18-1.11,1.74-1.6,1.61-1.42,3-2.64,3.58-5a.32.32,0,0,0-.25-.39Z"/><path class="cls-1" d="M113.23,64.91a1.45,1.45,0,0,1-1.38-1,1.22,1.22,0,0,1,.84-1.52,1.11,1.11,0,0,1,.82.08,1,1,0,0,1,.52.63.93.93,0,0,1-.63,1.16.23.23,0,0,1-.29-.15.25.25,0,0,1,.16-.29.47.47,0,0,0,.32-.59.62.62,0,0,0-.3-.36.63.63,0,0,0-.47,0,.77.77,0,0,0-.46.37.74.74,0,0,0-.06.58.92.92,0,0,0,.47.57,1,1,0,0,0,.74.08,1.19,1.19,0,0,0,.81-1.49c-.22-.77-1-1.14-2.26-1.14H2.78c-1.3,0-2,.37-2.27,1.14a1.2,1.2,0,0,0,.81,1.49,1,1,0,0,0,.75-.08,1,1,0,0,0,.47-.57.74.74,0,0,0-.06-.58A.79.79,0,0,0,2,62.82a.64.64,0,0,0-.47,0,.61.61,0,0,0-.29.36.46.46,0,0,0,.32.59.23.23,0,0,1,.15.29.22.22,0,0,1-.29.15A.94.94,0,0,1,.8,63.09a1.06,1.06,0,0,1,.53-.63,1.11,1.11,0,0,1,.82-.08A1.21,1.21,0,0,1,3,63.9a1.35,1.35,0,0,1-.69.84,1.45,1.45,0,0,1-1.1.11,1.63,1.63,0,0,1-1.12-2c.28-1,1.19-1.48,2.71-1.48H112.06c1.51,0,2.43.5,2.71,1.48a1.64,1.64,0,0,1-1.12,2A1.52,1.52,0,0,1,113.23,64.91Z"/><path class="cls-1" d="M66.81,76.07a.67.67,0,1,0-.67-.67A.67.67,0,0,0,66.81,76.07Z"/><path class="cls-1" d="M78,79.58a.68.68,0,0,0,.67-.68.67.67,0,0,0-1.34,0A.68.68,0,0,0,78,79.58Z"/><path class="cls-1" d="M90.57,67.45a.68.68,0,1,0-.67-.68A.67.67,0,0,0,90.57,67.45Z"/><path class="cls-1" d="M101.33,70.07a.67.67,0,1,0-.78-.55A.68.68,0,0,0,101.33,70.07Z"/><path class="cls-1" d="M107.84,70.79a.25.25,0,0,0,.21-.29.26.26,0,0,0-.29-.2.24.24,0,0,0-.2.29A.25.25,0,0,0,107.84,70.79Z"/><path class="cls-1" d="M62.21,71.05a.31.31,0,0,0,.26-.36.32.32,0,1,0-.63.1A.32.32,0,0,0,62.21,71.05Z"/><path class="cls-1" d="M107.16,69a2.8,2.8,0,0,1,.48,0,1.37,1.37,0,0,1,1.24,1.28,1,1,0,0,1-.74,1,.69.69,0,0,1-.7-.2.63.63,0,0,1-.12-.64.54.54,0,0,1,.46-.33.34.34,0,0,1,.35.3.31.31,0,0,1,0,.19.47.47,0,0,0,.14-.36c0-.32-.27-.56-.72-.65a2.56,2.56,0,0,0-2.13.8.34.34,0,0,1-.47,0,.33.33,0,0,1,0-.46A3.38,3.38,0,0,1,107.16,69Z"/><path class="cls-1" d="M62,69.86a.73.73,0,0,1,.65.37.66.66,0,0,1,0,.68.57.57,0,0,1-.53.24.34.34,0,0,1-.29-.37.33.33,0,0,1,.21-.26h0a.45.45,0,0,0-.39.41c-.07.37.17.71.64.91a2.91,2.91,0,0,0,2.53-.38.33.33,0,1,1,.38.53,3.51,3.51,0,0,1-3.16.45,1.5,1.5,0,0,1-1-1.63,1.11,1.11,0,0,1,1-1Z"/><path class="cls-1" d="M67,63.09c3.74,0,8.25,1.61,12.79,4.63L81,68.5C86,71.86,92.15,76,98.55,75c4.28-.68,5.62-2.8,6-4a4.4,4.4,0,0,0-.85-4.37,3.26,3.26,0,0,0-3.29-1,2.66,2.66,0,0,0-2.19,2.09,2.08,2.08,0,0,0,.91,2.07,1.89,1.89,0,0,0,2.15-.35.33.33,0,0,1,.4.52,2.54,2.54,0,0,1-2.88.39,2.76,2.76,0,0,1-1.23-2.72A3.29,3.29,0,0,1,100.28,65a3.89,3.89,0,0,1,3.93,1.17,5,5,0,0,1,1,5c-.46,1.34-1.93,3.69-6.55,4.42C92,76.72,85.68,72.46,80.6,69l-1.16-.78C74,64.61,68.54,63.06,64.58,64a8.84,8.84,0,0,0-5.74,4.55,8.36,8.36,0,0,0,2.74,11.3,6,6,0,0,0,8.16-2A4.26,4.26,0,0,0,68.31,72a3.06,3.06,0,0,0-4.2,1,2.17,2.17,0,0,0,.73,3,1.5,1.5,0,0,0,2-.5.32.32,0,0,1,.45-.11.32.32,0,0,1,.11.45,2.14,2.14,0,0,1-3,.71,2.8,2.8,0,0,1-.94-3.86,3.72,3.72,0,0,1,5.09-1.24,4.93,4.93,0,0,1,1.65,6.78,6.58,6.58,0,0,1-4.08,3,6.5,6.5,0,0,1-5-.78,9,9,0,0,1-3-12.17,9.42,9.42,0,0,1,6.16-4.86A10.82,10.82,0,0,1,67,63.09Z"/><path class="cls-1" d="M91.12,66.39a.35.35,0,1,1-.41.57.35.35,0,0,1,.41-.57Z"/><path class="cls-1" d="M91.3,64.73a2.74,2.74,0,0,1,2.33,1.52,2.92,2.92,0,0,1,.18,2.35,4.59,4.59,0,0,1-2.41,2.52c-2.44,1.12-6.52.45-8.9-.81a.35.35,0,0,1-.13-.45.33.33,0,0,1,.44-.13c2.24,1.19,6.06,1.83,8.32.79a3.89,3.89,0,0,0,2.06-2.13,2.27,2.27,0,0,0-.13-1.84,1.94,1.94,0,0,0-2.22-1.09,1.23,1.23,0,0,0-.64.67.62.62,0,0,0,0,.53.39.39,0,0,0,.47.22.11.11,0,0,0,0,0,.16.16,0,0,0,0-.07.33.33,0,1,1,.6-.25.71.71,0,0,1,0,.57.78.78,0,0,1-.4.4A1,1,0,0,1,89.66,67a1.27,1.27,0,0,1-.07-1.06,1.83,1.83,0,0,1,1-1A1.85,1.85,0,0,1,91.3,64.73Z"/><path class="cls-1" d="M76.56,73.49h.29a5.47,5.47,0,0,1,3.89,2.2,3.47,3.47,0,0,1,.71,2.6,3.54,3.54,0,0,1-1.34,2.34,2.16,2.16,0,0,1-1.59.43,2.11,2.11,0,0,1-1.43-.82,1.36,1.36,0,0,1,.25-1.91.91.91,0,0,1,.68-.19.93.93,0,0,1,.61.35.67.67,0,0,1,.13.49.64.64,0,0,1-.25.44.32.32,0,0,1-.46-.06.31.31,0,0,1,.06-.45.22.22,0,0,0-.18-.12.25.25,0,0,0-.19,0,.72.72,0,0,0-.13,1,1.5,1.5,0,0,0,2.1.27,2.88,2.88,0,0,0,1.09-1.9,2.82,2.82,0,0,0-.57-2.12,4.86,4.86,0,0,0-3.42-1.95A5.69,5.69,0,0,0,72.62,76c-.64.62-1.18,1.23-1.71,1.82-1.45,1.64-2.7,3.06-5.06,3.43a.33.33,0,0,1-.38-.27.34.34,0,0,1,.28-.37C67.87,80.3,69,79,70.42,77.42c.54-.6,1.09-1.22,1.74-1.86A6.45,6.45,0,0,1,76.56,73.49Z"/><path class="cls-1" d="M57.71,75a.32.32,0,0,1,.31.25c.53,2.19,1.79,3.32,3.38,4.74.57.51,1.15,1,1.77,1.66a6.31,6.31,0,0,1,2.1,4.66,5.52,5.52,0,0,1-2.16,3.92,3.51,3.51,0,0,1-5-.6,2.15,2.15,0,0,1,.36-3,1.36,1.36,0,0,1,1.92.23.9.9,0,0,1,.19.67.94.94,0,0,1-.34.62.68.68,0,0,1-.94-.12.33.33,0,0,1,.52-.4.22.22,0,0,0,.11-.17.29.29,0,0,0,0-.2.71.71,0,0,0-1-.12,1.5,1.5,0,0,0-.25,2.1,2.86,2.86,0,0,0,4,.48,4.83,4.83,0,0,0,1.91-3.44,5.63,5.63,0,0,0-1.92-4.16c-.6-.61-1.18-1.13-1.74-1.63-1.61-1.44-3-2.69-3.57-5.07a.33.33,0,0,1,.24-.4Z"/><path class="cls-1" d="M48,76.07a.67.67,0,1,1,0-1.34.67.67,0,1,1,0,1.34Z"/><path class="cls-1" d="M36.8,79.58a.68.68,0,0,1-.68-.68.68.68,0,1,1,.68.68Z"/><path class="cls-1" d="M24.27,67.45a.68.68,0,1,1,0-1.35.68.68,0,0,1,0,1.35Z"/><path class="cls-1" d="M13.51,70.07A.67.67,0,0,1,13,69.3a.67.67,0,1,1,.55.77Z"/><path class="cls-1" d="M7,70.79a.25.25,0,1,1,.29-.2A.26.26,0,0,1,7,70.79Z"/><path class="cls-1" d="M52.63,71.05a.32.32,0,0,1-.27-.36.33.33,0,0,1,.37-.27.32.32,0,0,1,.26.37A.31.31,0,0,1,52.63,71.05Z"/><path class="cls-1" d="M7.68,69a2.61,2.61,0,0,0-.48,0A1.38,1.38,0,0,0,6,70.31a1,1,0,0,0,.74,1,.7.7,0,0,0,.71-.2.65.65,0,0,0,.12-.64.56.56,0,0,0-.46-.33.33.33,0,0,0-.35.3.26.26,0,0,0,0,.19.48.48,0,0,1-.15-.36c0-.32.28-.56.72-.65a2.59,2.59,0,0,1,2.14.8.33.33,0,0,0,.46,0,.31.31,0,0,0,0-.46A3.35,3.35,0,0,0,7.68,69Z"/><path class="cls-1" d="M52.85,69.86a.72.72,0,0,0-.65.37.64.64,0,0,0,0,.68.58.58,0,0,0,.54.24.33.33,0,0,0,.28-.37.3.3,0,0,0-.2-.26h0a.46.46,0,0,1,.39.41c.07.37-.17.71-.65.91a2.93,2.93,0,0,1-2.53-.38.32.32,0,0,0-.45.07.33.33,0,0,0,.07.46,3.55,3.55,0,0,0,3.17.45,1.49,1.49,0,0,0,1-1.63,1.11,1.11,0,0,0-1-1Z"/><path class="cls-1" d="M47.81,63.09c-3.74,0-8.25,1.61-12.78,4.63l-1.16.78C28.89,71.86,22.69,76,16.29,75c-4.28-.68-5.62-2.8-6-4a4.4,4.4,0,0,1,.86-4.37,3.25,3.25,0,0,1,3.28-1,2.66,2.66,0,0,1,2.2,2.09,2.09,2.09,0,0,1-.92,2.07,1.89,1.89,0,0,1-2.15-.35.32.32,0,0,0-.45.06.32.32,0,0,0,.06.46,2.52,2.52,0,0,0,2.87.39,2.74,2.74,0,0,0,1.23-2.72A3.27,3.27,0,0,0,14.56,65a3.88,3.88,0,0,0-3.93,1.17,5,5,0,0,0-1,5c.46,1.34,1.93,3.69,6.55,4.42,6.65,1.06,13-3.2,18.05-6.62l1.15-.78c5.49-3.65,10.91-5.2,14.86-4.25A8.85,8.85,0,0,1,56,68.56a8.37,8.37,0,0,1-2.74,11.3,6,6,0,0,1-8.17-2A4.28,4.28,0,0,1,46.52,72a3.07,3.07,0,0,1,2.31-.36A3,3,0,0,1,50.72,73,2.16,2.16,0,0,1,50,76a1.51,1.51,0,0,1-2.06-.5.32.32,0,0,0-.45-.11.33.33,0,0,0-.11.45,2.16,2.16,0,0,0,3,.71,2.81,2.81,0,0,0,.94-3.86,3.72,3.72,0,0,0-5.1-1.24,4.92,4.92,0,0,0-2.22,3,4.84,4.84,0,0,0,.58,3.73,6.58,6.58,0,0,0,9.06,2.2,9,9,0,0,0,3-12.17,9.44,9.44,0,0,0-6.16-4.86A10.85,10.85,0,0,0,47.81,63.09Z"/><path class="cls-1" d="M23.72,66.39a.35.35,0,0,0-.09.49.34.34,0,0,0,.49.08.35.35,0,0,0,.09-.49A.34.34,0,0,0,23.72,66.39Z"/><path class="cls-1" d="M23.53,64.73a2.75,2.75,0,0,0-2.33,1.52A2.87,2.87,0,0,0,21,68.6a4.54,4.54,0,0,0,2.4,2.52c2.45,1.12,6.53.45,8.9-.81a.33.33,0,0,0,.13-.45.33.33,0,0,0-.44-.13c-2.23,1.19-6.05,1.83-8.32.79a3.84,3.84,0,0,1-2.05-2.13,2.23,2.23,0,0,1,.13-1.84A1.93,1.93,0,0,1,24,65.46a1.2,1.2,0,0,1,.64.67.62.62,0,0,1,0,.53.39.39,0,0,1-.47.22s0,0,0,0a.08.08,0,0,1,0-.07.33.33,0,0,0-.61-.25.76.76,0,0,0,.41,1A1,1,0,0,0,25.18,67a1.27,1.27,0,0,0,.07-1.06,1.83,1.83,0,0,0-1-1A1.9,1.9,0,0,0,23.53,64.73Z"/><path class="cls-1" d="M38.27,73.49H38a5.49,5.49,0,0,0-3.9,2.2,3.53,3.53,0,0,0,.64,4.94,2.15,2.15,0,0,0,1.59.43,2.09,2.09,0,0,0,1.42-.82,1.36,1.36,0,0,0-.24-1.91.91.91,0,0,0-1.29.16.63.63,0,0,0-.13.49.64.64,0,0,0,.25.44.32.32,0,1,0,.4-.51.21.21,0,0,1,.17-.12.29.29,0,0,1,.2,0,.72.72,0,0,1,.13,1,1.49,1.49,0,0,1-1,.57,1.45,1.45,0,0,1-1.1-.3,2.87,2.87,0,0,1-.52-4A4.86,4.86,0,0,1,38,74.15,5.71,5.71,0,0,1,42.22,76c.64.62,1.18,1.23,1.7,1.82,1.46,1.64,2.71,3.06,5.07,3.43a.32.32,0,0,0,.37-.27.32.32,0,0,0-.27-.37C47,80.3,45.84,79,44.41,77.42c-.53-.6-1.08-1.22-1.74-1.86A6.43,6.43,0,0,0,38.27,73.49Z"/><path class="cls-1" d="M57.13,75a.33.33,0,0,0-.32.25C56.29,77.41,55,78.54,53.44,80c-.57.51-1.16,1-1.77,1.66a6.24,6.24,0,0,0-2.1,4.66,5.5,5.5,0,0,0,2.15,3.92,3.51,3.51,0,0,0,5-.6A2.1,2.1,0,0,0,57.12,88a2.13,2.13,0,0,0-.81-1.43,1.36,1.36,0,0,0-1.92.23.9.9,0,0,0-.19.67,1,1,0,0,0,.35.62.67.67,0,0,0,.93-.12.32.32,0,0,0-.51-.4.23.23,0,0,1-.12-.17.25.25,0,0,1,.06-.2.71.71,0,0,1,1-.12,1.52,1.52,0,0,1,.56,1,1.45,1.45,0,0,1-.31,1.1,2.87,2.87,0,0,1-1.92,1.08,2.82,2.82,0,0,1-2.11-.6,4.83,4.83,0,0,1-1.91-3.44,5.66,5.66,0,0,1,1.91-4.16c.6-.61,1.18-1.13,1.74-1.63,1.61-1.44,3-2.69,3.58-5.07a.33.33,0,0,0-.25-.4Z"/><path class="cls-1" d="M113.23,65a1.37,1.37,0,0,1-.68-.17,1.41,1.41,0,0,1-.7-.85,1.26,1.26,0,0,1,.1-1,1.23,1.23,0,0,1,.74-.6,1,1,0,0,1,.82.08,1.06,1.06,0,0,1,.52.64,1,1,0,0,1-.63,1.18.23.23,0,0,1-.13-.45.47.47,0,0,0,.32-.59.61.61,0,0,0-.3-.37.59.59,0,0,0-.47,0,.78.78,0,0,0-.52,1,.94.94,0,0,0,.47.58,1,1,0,0,0,.74.08,1.21,1.21,0,0,0,.81-1.51c-.22-.78-1-1.16-2.26-1.16H2.78c-1.3,0-2,.38-2.27,1.16a1.22,1.22,0,0,0,.81,1.51,1,1,0,0,0,1.22-.66.76.76,0,0,0-.06-.59A.77.77,0,0,0,2,62.84a.61.61,0,0,0-.76.42.46.46,0,0,0,.32.59.23.23,0,0,1,.15.29.24.24,0,0,1-.29.16A1,1,0,0,1,.8,63.12a1.08,1.08,0,0,1,.53-.64,1,1,0,0,1,.82-.08,1.23,1.23,0,0,1,.74.6A1.25,1.25,0,0,1,3,64a1.4,1.4,0,0,1-.69.85,1.45,1.45,0,0,1-1.1.11A1.67,1.67,0,0,1,.07,62.83c.28-1,1.19-1.5,2.71-1.5H112.06c1.51,0,2.43.51,2.71,1.5a1.68,1.68,0,0,1-1.12,2.08A1.52,1.52,0,0,1,113.23,65Z"/><text class="cls-2" transform="translate(0.13 44.56)">DO<tspan class="cls-3" x="34.99" y="0">A</tspan><tspan x="45.63" y="0" xml:space="preserve"> CLARI</tspan><tspan class="cls-4" x="94.24" y="0">T</tspan><tspan class="cls-5" x="102.29" y="0">A</tspan></text><text class="cls-6" transform="translate(39.63 55.81)">HOSTAL</text></g></g></svg>